<mxfile host="app.diagrams.net" modified="2022-09-29T07:57:43.430Z" agent="5.0 (Windows NT 10.0; Win64; x64) AppleWebKit/537.36 (KHTML, like Gecko) Chrome/106.0.0.0 Safari/537.36" etag="dYOAx2FAYz-ao8EsOL0q" version="20.3.7" type="github">
  <diagram id="WDXHg56uqj_OJeIYiJ1T" name="Page-1">
    <mxGraphModel dx="1422" dy="762" grid="1" gridSize="10" guides="1" tooltips="1" connect="1" arrows="1" fold="1" page="1" pageScale="1" pageWidth="850" pageHeight="1100" math="0" shadow="0">
      <root>
        <mxCell id="0" />
        <mxCell id="1" parent="0" />
        <mxCell id="iK3zEx9ikkL7i1Esu0Du-2" value="" style="shape=image;verticalLabelPosition=bottom;labelBackgroundColor=default;verticalAlign=top;aspect=fixed;imageAspect=0;image=data:image/png,iVBORw0KGgoAAAANSUhEUgAAAFAAAAA1CAYAAADWKGxEAAAYWklEQVR4nMWbWYxdx5nff7Wc7a69sptkc2c3xcUkRVm2ZMc2ZHvGi7wothbDjjNxggESIAiShzwEgwQOAuQlD3nIZJBkMM5gxgMn0djOyB5b8jKWRxJN7RJFUtz3Jtl79+27nXNqycO5pGgNrZbTpP0HbuPe0+dU1fnqW+r711fCe+9ZBZxzCCEQQgBwvbnrv+80vPe/1NfNr/ObGINcbQM3C++3Ae89t9KB39SYbosA3+n3ncZvewJXLcC3wzmHtRbn3O1u+pZ4u/CstRhjfmP9r1qA1tob3733N17g+udO42bztdbe6D/Pc/I8v+P96xXvsDneWTp4oiBBecAVHyMhU4K420XKmONtweNn53jt4kX2D9b52gd2MHaHnboghzwHYi5IxR+/dI2TV6Y5MFjiS/fuYJt0ZNbgw5DrI4kBnIG0DUltVf2vLEAPBCEaiQeMNWgEaIUQYLvLiLjO2dmU/3PoOL+YbTHfbBDPzHG4v4+x3WtWNcCVkBIQaYnpOk6dnePEm6eZzEF2u5j0Db728XHWhTGqndPNu6h6mTYSjKcUrE548C5MOBWKrCc8cGgNKI8XOZnrUInrnG50+fbxczx9ZYnpToB2JcpBQpwkqx7gyuMTeKFBaQJnqAAmF5xueH4y2eK/P/MKZ1sggoBEeAJyLA6jVtadd4MVW9FKkltwPiPSEpwHBNaDlxHH53K+degwf3OtzTRlEhRb++t8ZGKAPZtr3OkAqQFjMwKluGdiHVdsRPvoJU4ud1kMSjx19ByJPsVX94+zqVJD0CF2HZAJuRcEt6H/d4RyoCSAgiwHJ/EyYAlYsI5vHjzFKzM581RwzjMWez62c5QHdgwyosy76WJViIA86xJEEfVQ8ZHtgzTzHHFuimOz8wTlbfzg6CTz7TZfuXcH9/QnBHkKskMahLBKEa78dqbXhxeAgjCgI+HYlYyfHz3GM9c6WJlQNpatkeOL793Mg7uHGSYDl4P8u13czmxBmRQVxyAsprPEWLnO5/eNUq4E5M9NMtM2LKuQn16cAilI7t7Lrr4IlESQsloBrryMkRbncpww+DCgJeHIHDz55iW+d+wKixqyZoMd0vDw9jV8eucwAzIlzZrg7qz2AeBDECEZEW1nET5nbQCfmBjk0QPbWR+mrIkDpKzw4pUO33z9HAenDE0fEKzagN+FBnrtMd4ihcYARy4v8MTLpzk43aLTN4qMM/pTx4N7dvCFewaIdAtIEXEVS4Ba9RBXgqCdgwkkQbkffAatJdZU6vzu/gla4QI/OPgKjTykG/Xxw5OXaKctqsld3JUIgtIqe/dpx6N1ERxUMSPOgs0MQaSL6CsMmdS8cK3Lt148y+tXG3gpsGmDamJ5dP8evrBrjKEQjG/hVESARrSBVQ5wJfwq8uL6dW8Ef3b0LN85cZbppTJ5XiUODPdtDPj0+CAf2zKCwWFlYYzCZIRCgQD8WzL5VdCEYfFNSjKTEyiN1AKpNHiPyXNEFHL4ygJ//dIpTs06MqEJnWG0VuXvH9jA+8fWMxQAziCEAzyOFfu+LXg7G/P2/83jeXTPVmpW86fHznMh7NJtGI6dnEMJT72q2bNmiNgBeQcbBaRI8lZKJUhYyYRk24NBYoFQK5zPAFNone3gopAXL87x+PNHOHhliVmrMMawLtY8ML6Fz4yPsrMKWMBarrtVjwF951O5t9NoN38XQlAOLCXveGjHBh7bv5ktfZY8zJgh4dC5lP928HVeme4W2ZUFicXgEElSaOEK0FpI8tyRBBK8QxqLU+BVgJUBr0x5/vLQSV6Y6ZDVR3GpYX2c87t3jfKJ3SMMBW0wAqwAoREqBAQKA969q0GsBrfSvpuvJbkiy1uElYRHdm1EC8n/8pNcWgrIlzUvzUjUs8ewe7fzwS01hOkQCItSGi9WHr5WQKgk5AacRTgJYcSSg/NTi3zj2SucWxS0w0HIHWujnE+Oj/LZ96xjNDQgPAQBKI2XojBdQFgNxhYLtd8mMgnlKkuk1KXncxPrcc7x3TcuMhUpgr4dPHfpBLk4gazt476BhNDmIHKaZFRE+R2bF9719N058B6vFQ3g+XMNfvbSa/z4qkKXK7Tay4xGOQ+/b5zP7l7HOm3BpmQ6ohBZYbqKYvF9A7edMPv1YHLQGlIBKSlVB6Id8OS5a/zpmye4MNVHWnYg2xzoL/EPd47z4a01UIZUdIiovmP7umMyYq0Q0oPQzFk4dLHBD147zWuXmwSVIbRP2V4RfHxijC/uXseQzsEYrEwQ1iNUoejCO5S1ICVIgQXUChJcaUfh3S60397OjecCg8kUYSBARHS685SiKh9/zzrmbZsn5i7TSapcTjXPX1hAZufpynHu35JQUfGK/WoVSFKb4nKL0SVOTDd48sXDHLy8hBreRLA8Qy2J+eQ9u3l4bz+DrgPdZUiGaCGppQ6kB2GAvMg+hCID2kAflV/rxd+OlQR4Y7lyE7V/8zNaNOmGJYQNiQwQ1WipDEvAl3dup9y3hu88/QJXlyXJwHpeXmphXj1KLLbyoQ0DEL6zAEXLtHzJlWhn8P1Li/zkxBRnLjVY9DmNqmKrnOWRfXv5/I4NDEc5ljZWhAQkiBZQysEHZBIuNV9gsvljZpePMr8wy+jQGJsGDjDe91Xo1olDwM+DGAAPVqX4RoSuGdpc4Oj5p7nWeoFUXkL4IdYOfJi7qp+iv7wWgaTbMsSR7lFsTYztoM0wS+Yqi/4oZ2ZeYnL6MHEiWN9/H5sGPslIuUreHCYJFATQsXMEQT/CSSQZwoX87Pw033jpFEfnJeVkBN1cYPNAzice2M3DozFaCpyTSPl3rUn4zPp2IPnbs1P81UtnODyX0RAhCZ7hUPHY/Vu4d90IOyuAd1jRwaoQRYDoQmoWiCuew5M/4vnT36RhX8ewRNp1YGOq4Qh7NjzKrvUPM1bfWbCwAAq8WEb4KievfZc3rz7O2Wsv0rLTyLCNc2UGyjuY6P80E2MfY33/fQirkRK8TxFSknUleXCKQ8f/mJNTTzDTuowVOeVKSEQfJb2RB/b8Adv6PoqwZZDgRQdLgvSAS0mBroj4xdkFvv3aeV6bapFLyWgsWJsI/sn7tjM+2s/apHBxb4f6t3/w77/+5IUr/O833uTEbEpTlmn6DuM1zVfGt/GJXSNsiilIBS9wXuCURiBQEoROWHSv8POj/4kLSz/GRg0anQyhcqTqspTNsNQ+ilKezUP3Y9MIKUGolDRv0laLHDr1Xzk+9Re0xDw2SPHKkbuUjplkbvkYSMG6NXcTyCpS5DjfRlIm70renPsuRy8/zlT3GEYaCD3GG5ppk66bpLls2TB2F6EfwlkDSmCcREuBlOCkoCI8m8olKoliKm0w2e3QyiXtJsw3M+JSwthg6ZbWLJ+a7PD9185z5HKbLBqmlFQZL5f4nS2DfGbvGoZ0WuR2AAKEDgrh9RrILBw5+yyXF55HhCCVINAQBAE6jCj3K1pqhouLP2S6fQrnQUgAg/AlXp/8HsevHqIDxHVQgQAFOgShBUtumnPzP2O2fRwPWJfjbOHjjGjwxvmnmWtdQ8WQVMoIWcd5hZegwgqnZ37C2alf0LYLCCkB9Us+UhFAJyX0TT60tZ8v7N/K3v4y2jmo9vPs+Rl++OZlvnd89pY+UP6PV49ycrJNn16HsxHZfIMPDQzzuV1bKZcXQeUQGAgL4sPLXsywDqyh7a9xefYFdNLBeWjMRyThMEppGo0ujUYNC7Tyq7Tzq+gEvLSkaZdIV7ja+hFNcxmkxpsRWsshnQ4IKZC+hophdvkc883TGN9FyRDhKxjryOQpGvJZOuoqqYFmq0U3X8IHFjSkaQTxPFfnzhCEGqUC8A4tBNYW63xaQFSGABKZ86F1w3x8bD1rFTSzBlQTjsw0+PbhS7cW4GSzgc+gjEYYi0271FVAfzUkQ5AiSRFkAnIAf9M6T0kqUU7qrqBCiGOQUmJ9k9x2SGKQtox00G1qWq1WocXCFPQiIPUcYdgprjmDVJ4wAoQny1tIX8c6g7cO0aPHtFaY3GPkIplfordFgxYhgYRQFzSTy2OUhk47RfgAHIUZF/4IhEKJwrJypXFCUwlgKCgROo90OZGCNO3QSC23gvzsju2sH9K07RxRkBNVS7wyP8PTp+fo0Ic0MdIX1i+tR1uLEB6UxEqJYJT+yla6rWLRGkeSVrtD3oUkKFOqLhIoRTncQKQG8bYwnChMyCz0ifuI/RpsDsbNEYYWJcBkYHqCqyf9DFS2opwGUpAOIRSBWoPKtiGyMtoHxLJEaCvYDpguKGFwWcRwfQyRR9Bj1yW2WLsKgS31XJMVtF3IkTl48doci1ZQiarY5TYb4oiPbh2+tQAf27WRnduHyKJlMreMjTWHFmb53pFTXLhkCZwkcBA60KLoFHxhllhcFrBn4nP0ldaTLmu0jignUE4gbw7Q6TYJhGPL+n1sGtmNNeCcRuBBttk28I8YqRwgkkVWKJyGvI4ipr9aRogO/fVBhqrjSAvQAdpoCXGwhe2b7qdWqZKbnNwuIkSOckX2EZWnSFSdbRt3EaoQHEipeqMv0KEDdNBopudbPHnsOD+/doU5L8m7npH6Gu4d38yX3rvplgJU/+U//rOvb6yvpbmUcGGqjYglcSiYXco4vOgY3ZjQ5wMiAUZ3yWSGFhJpFMJIAg2RHKSsN9FpL7HUPA6RhxA6qgGLCbvXfZUDm3+fgWgHWgmEdECEFwGVKCTUwzTbMN+apCOayCRFBwZjcyb0YxzY/PuMVPchdIS3EVIKpJIEWUStHrK8CFenL5NHTWTNkgLeaEK1gfve85/ZnNxHnNfAgHVgtMGjkZkgFQ1iV+PaguR/vn6BJ85MkruEelzBese/2iv44LZhxurxLdln9W/+3X/4ei1JGO7rZ7mzzInJadpE1MpVsqVFli9eZN3mzQxUQLRSolCSAY2sQyWMyHOIwpjh+jDVvjrSV8g7MTpfS01v5/49X2Bi/cdYV72XwCcFbSQMFovzikhq+qoVhgb7KcV9qDRCdwYZCHayofY+7h5/hI0j9xIygvRFyi6lBQTeSiphnVp9DfXyIJoKZjmhlK9n+5oHuGf7g+wffpBElZBBAKHEBxLvApRxKOGIZcSbnZxvPH+Cl08tYFQfS7bNsG7z6M7NfHDXGCODFSJundaLZe99xQMYXr3W4hsvX+KZiw0kkiENfmaGA++d4MF9W/l7tQAZOpZ1ikNSdwEeifcglMPSoM00i81prBNESZ1KoCixAe0qYIokQoRdPAKDIuhqiHIQDZb9NIvNGbwRVKIa1VI/0I+kCq4wcecdWmeAgjzAZCATh5GzLJurtNNFtEyohkOUVT+i2w9hi6ZsI4iJqBY0pQdUzsXplG8cPcUPJzu0unVkN2dduc1De4Z4aGI9/f1lFL9670NkzvvAAaaBDSu82pD8+bNvcvD4FZL6IC6IaC9e4cMbB/nH9+5h54jGBg6JJXQeRIjJoJtCpVI45OsRtpCWQ3h5I/AV+6Q5HonxiqCXmXgJQt30XEFsYxTQW3JIBUo5IAevwaniPgn+JuZYXH8+B1KgBi3RxJBSdyVwCUbB+aUOf/LsGY5cnuVSXKORxKxrtfjaplG+dN8GonIbRQnvHNL5Hvn3y9CB8aAEhDWUTbmnHsGB9WjguYttFmqCcqfMa+ev8WcBPPq+feyrSgJroCKAFB1GVK7T9x6E8TgHAoEIZU9w9NjJ3hsT4H1vasVNcnNF2QreIYRHa4XrCbfYLrDgJc4qpAAfGEDikFjncblDeIGWEhWAkzleBERUKLsEfAd0zgtXuvzkxAzPzgZ4Xcc0Z1mvPI/sneDz2zZQDqGLRmOKuKluzSppMGS5wkWSWEeI9gLvHa3iPrATG5zhqQvnSQjJozLPXF0gf+EY8c4J9m4ISQHyeaLgJiUXOUiDRIIP8N71Mo/rka+XDQCBBOszJBp33cNIhwwtxUaDA4r89y0ovHvrWsoCggBNhJIaFYleIYrD48mVQbqAIKeYhTDm8MI8T52c5advNsn1IAv5Mtuqji9tXcentg1T6y8UV6chhFkxw7+CFNLIgFa3TRyVCu1QMTjJ3n5Q9w5Rzhq8cWWOmbhKSpWDp6fp8wGiPsFANWN9VMV7hTEW5zKUdiglKIomJNYB5AjpegmgRniBECBwKKHxXuCtKYolVaG5FkXmHREa722vRESBL4qa6KWDMX2AIDc5zhq01gilcBSlbkIVCQJW0dVweKbLk8dneOFCk7YJCeQ1tpc9X9xzF4/u2kQSGjp0kcRoCbm1CKkRFIb6doiO914Dmk7hSHqLZkQGYomLV4b5w8OH+cHlRcJghDCziPYFPjJe4/c+sJ+JWhnnQKneEpGinMPZ4h3dDbdx3XR7f71FiBxMXMzuTX7T8ZY/FJZbz740eFqIrP5WePS9e3u/rQMpQFBsPZxcSnn8yGWePDbNUlvTVxnAhKf5p/vv53fWDVKvgY4gJMd0UlQS426MWN5yg06sWGSeNznSsvzFK2d4/uwSgRwia7SxpGyaGONf3reFzTUY1C3wFuMiUDHaUzjxFQjJ1WIaGAB0SiHAELrSF0EO6LQ9SRhweanBHx0+w1+fXka4foZCAX6Bf31gmK1j69k4VCUEnOmidOGwcxzBCi+w8o6FDhnvq/PY3Qd4YOsGTDpFK+oi+hIuTE7xxNMvc60FhgppO0erQt2Xu90ifbnDqHuL8r4ocYnASgjwhN5DNyMJA4632vzRC8d5+egSFdFPLlrEcpYv79rIru3bWDtUvRHjhPPgwfe0biWsXLwiCip8fxWifZswusPPL07R6HaRWcDBC4sEh07y6T1j7BwZAoqYmCQKS466w9tyUaZAGFohCCQhoE3eK4qKuTi/yLdeP8dPrwo6apSg02JbLeWze0Z5cHyUvkpwY53n8yKiey9AyCIQroAVBWgdxQxnHXb0x3z5A7tRgeInr1/GBAlLlbU8dfwyeZ4R37+HbX0C7Rw6APgNFHp7INQIHAKL9gqI6EjPdNrlD189ybGzGbkaxdQka80sj20b5qHd48hYor3DWwcIhFKIHuv8bg/PrFxcZMEHHhd4TDbPjnCAr+zcSdiNeObsJBe0JiuV+NvzU0gpeeT9u9hW18hOCxHpO76tmdkUJSJCHPlyB0QFEjjeyvneG0c4OKdBJ7jmPGNByqP7Rvj8+BjlQLCMIMEUYxSSm6OVeyvmvSNWvEUr6ODJ0YRhDMtNtlUEj71/Gx8dH6AvmycUlkWveebcDP/3pROcaxhIyvj8zm8K+3KEw6ByQ5LUIJEca8D3j1zkR8evkbYTZrMlNvS1+drEMA9vXUtSUWQK4gz89eqJmyK9865He61sQSv7QAm21aFULgEBJkjRGtZpePjuTSghOXhmjkulOgtIfnTyEkFo0ffupF8rBv//ZfOuIHC4bhdvJa4Mx5Ydf/naSZ47M03m1hBkDSZqlkf2b+Shu7aQKE/bG7SAQBrM9eIkD84Wx9a0koApKLcVdGzlInOXUY0qkEowEhsnLGGQtNlUEfzefbv4wJaNhFJhowqNuMqTr7zOd557jmZ85zVQ5ilRECHjmLOLSzxx+DWePnuWuY6kpNcQhW3+wd27+dTWDZjA0FaS2IXoRhN0A6F0Yb5CFumaEr3aMk+ed1fsf+V14AqwGKaXl3n61BW++dIlLoYbCeI6/d0rfObujfyLPUVkvn4k63afFfG+sL6WgD85dJ7HT86zIMsEjRm2J/DP39fH5rENjNbrPZrforVEiOJQkFplDd6qa3CFEayp9vPAgX7mXI2njs9y4eIxBMvU8oIGv1PCKxoHcAgniUwH1ZgmImJrPeajuzYzsblOf7l0I0FxXK8pvD3dr1qAUihwjmEp+eTuDVR1xNm+gLLrY99I/+0Y4zvCeNDGkAQhezeuYaZrWM49u4arfOrutQzIt7I774p8tphIcaOmZzVYtQnjwHTb6CTAioB5A10L5IY1FU3QO08Md+aoV2odKk/RUURHSC51PGlmGBI5ayshzqnemWaP0tcZo14tjQC5ygLG2+ADwWbdXvWTI7MeqUo3qAN1hw9gW0A6g+gtOnJZJP066wAGdJnrW5jFQIoTpc45lFKrHtfqT2s6jwrj3gAl2AxsC4UhM0UUu7PneV2RPXgBxqJMhvZZUWKXexDu+nYfXjisLz5KKcRtKJ9dvQl7ixeK3HlCKcD3qlZRGOQdPqcEmUkJdfRW1ihdj9UqmHDnuiB7ByV9MZmBCH6ZHF8FVr9Qcw7hiwN+3lPsVWQeZ27H/K6MoLdP4Xq8oUfStbZXdQWyZ6ZeSJTURdCDQrj5rasNfh38PwN0GEO2rTWeAAAAAElFTkSuQmCC;" vertex="1" parent="1">
          <mxGeometry x="50" y="80" width="80" height="53" as="geometry" />
        </mxCell>
        <mxCell id="iK3zEx9ikkL7i1Esu0Du-3" value="" style="shape=image;verticalLabelPosition=bottom;labelBackgroundColor=default;verticalAlign=top;aspect=fixed;imageAspect=0;image=data:image/png,iVBORw0KGgoAAAANSUhEUgAAAFAAAABOCAYAAAC3zZFGAAAgAElEQVR4nOy82ZNlV3be99vDGe98c87KqsqaUCjMc6OBnpvg0E2RGkjbYVmKcEiyH+wHP+gPYNiPtvVkhUWHFZYZYdqyxAndHc022QObQANoAo2hCoWax8zKOe98z7QHP9wCQLABhkIW33wiMiPjxs0453x7rbXX+ta3tvDee/7/69/70v+uXywB5UCYCik9CHAIvAqwQOihMuAlSAXOQ5VPiQOB0pBXCYGcfT4tS3qVZ3sK13b63N4dcL0XMCkdvcwyKAzGeoS0hBI0lloUkyjBXCNkfT7hZCfieFtwvB0x3whRqsB7g7AerSNwGnzw0fMbBeL+38KD9B6EBW/BO1DJvxeA4t/VAisDWs9uDg4A5yweCUKhTAY6AKkZ5QYZaGIFCkOZDfFhl+2B4/3tARc2x1zaG7PZzxmVDusFkZI4LygdGA8eUBJCLVFKMSkkzhnwjlB6atrRCAULzZhOLeHFI01OH+uwvgCB8dhySBgGCB1Qek8iQjwe7wRSzsC01iIRCAmzX3+DAGIdH97ZA3gQwgH3V9B4UGIGrgAvIkZIbh4U3N7ucfHaDle3x1zuWQ5lF592Ed4hTEbgK6zJiEJNLQqItULisNZijcfiUQhK5ymdpHCSwoIVgjCIiZKYdjamHVY8cqTGFx5e4vHjMS09W0DwaBSmqgDQQQBIPGAcICH4jNf+DwegMyAklQWHRGtQOPAVuIpc1Qm8Q7kp3sLdkeWV21N+fCvnas+y38/wSqN1jBIQ2pxOUHKim7K20KLT8KSBpBkq0mBmkbN1Uliv2J+UFNYxruBgXLLVz7h3MGS3P2YyzemlHepxRGhL4mLII4spv/T4KT5/qsNSCipws8X17r4xKJCz8GM9hOKvffv/EABWs/urAHf/Zs4asCWBkoxFjJBwaOGNSwP+9N0bnN8Yc2BjjK4RRyHd2LNec5zuaM4u1jg236QWabyxmFqCsBXSlEhvUF6AVAipcEgin+EBJwMMksIpxoWlP86YTAte3x5zafOQeyOFSucIjKOW7/P4UsQLDx7jhQdTFtsRESB8icszpA5BJx8Hx79RAL0F8fGdHILCgNQCz2w3+t6Fbf7t23u8ta+YUqOhLfNyyJzKWT8yx8PHF3h0pc6cyvH5iMopjEopiAlkhlAaoUI8EouYubC1COdJA4G3BmPLmQUBSI1xnspYdCG4OxG8uVvyxsaIO4McJwytVJJqw5e7nqfOneTZs23mFIS42TshAPk3HwMtoACo8GWBkxqjY4YW9kaeb792mUvbU670FQNZJ5ZwNMr5wskaL5xdppMC1oApka5C6gChEwpCKi9Z6b+ND+uUusGYiGkFzhmSQBKFiiEtQiGQwuJNAc6jAo1UGocknuY4FVAEAds5vHnngJ9cucuNXk6pYpLJlDPLTV58YIEXTs3x4KKmrgAP3jmE+hsGcFxBLQDhC8gnkDTICXjzxgE/fOM9/s3OGoErSV3BSs3z1MkFnj6zykpdQTkhCR25FZQyQoQh3oMvKiJKkgByXeMgg8t78O6dfW5s7WNMyUInZbHd4Jtrlma9RrMWo/EYY3CAEzMXHwcRLW1I8kN8NqIQDe7ZOf78ds5PPthlM+hS7t5gTRzyCw8t8EtPrvPAcnP2TgLk/9cYWALSgr6/kQJ4AU7NrG/yIYAmQ2AZyxrfeneH/+sv9rhbtQizAWlU8MBywksPHeW51SaqrBiUE1w9IvGSzHqmWYUUnlakUa6icpogqvFuH96+tMlb13c5qEIIUrwtUNWUUFga3Xm+cnaBr56IWeAAV+ao+hxjkbJ1OEUnivlmQjHsk2hBEgaUBpwI2NrZ43/7wHBtc5epD4nDgCM1x288t8bffrhFag8Yi4RABmju79zWASGIgEJA9BkAfwSg/+gDZohhZ2mL9Fjv8EKjTQHasTURvHx+n+9f6bNxUDGdTllagm88dI4XV7vETKniApnGiFLiRhXvTRR3b16nWw945Pgy7cAThiFGRGwdjvj993fZ3OmzNSwpdQ0Z1RDOgqvQWKSXdHTFlx9e4WsPLdPVMzce+4B7vSnfeX+XxVTw3JlFTnYiyCd4FWBUjVHpGZSWCxsDfnhxm+uHBUkIpxqWl87N8c3PneFIZDBFjg5DEJrSSZyHSIEzJUqHnwrgR5WILzwyFCCgpCLUagaivx/7TAHSsb0/5VtXxrx8xXN+07CoS1480eCLZ1ocWw7oNEsSBII6exPLld0RtwdTXrunKfdHfO3cEq1mnciVOBWxPXL8+MIt3r6bUzmPVQFSC4QvsQi8kBgkkTPc7BnKSwN83OCL63UWwxLpLO1mg1pX8sqbb3D93gEPHF3m1HKLR040iRzUzZjjcZ+1B+YIA80PL/e5Oyy4ejiivDSlF2X84wdD5mr1WbahJNP7IVHiCPUY6H4qgOq3fuu3fgtAlB60wAvw0t7/Z8C5mS9Lx95U8vKFA37/vT43x5pWHPLcsYRfeWKNzy02cKKgX06ZWsFh3/HTSzv8Pxfv8drOmN1ewePrK3zxwVWONBTOObYyxU9v7vPj9+/SV11UEKGVRno723CYpTIeSUyFbi+xPXHsHfRYrmuOtEICYYnjiHasuLfX5/ye571+xPWRZlJ4mkxZb0I5nSKVZqHTpt1IyfOcXgYbY8XrN/sE1YSjxzq0AkExGaDD+H52IVC+AhH99QDOIumH1cXsMsZiDSgZMpGaf/3mPf7gsuHmUFP3E75+KuEbTxxhqS6YastcvU1g6py/NeLla9t8f3vMzYGimqacaOX87efPcq4rsP19JsS8dXfMn1y4y56NsS5CeYG0FqoK5TxaKrQIEEhEMYQgoZIRJp8S2Akr7YiFWkQ17dMMBTJpcP2gYDML6JWKzc1NqmICUtI8eozSRjR1xdGWoqkdh6OMqwcFd4aCizu7BHGNk4sJ3digbUUkQxRgTYRUnx4DPyYTFFhjkMqhpMQhkDrCahhZ+Nb5PX5wdcD7W4aFRp2vHWvw0qmE9YalQpEXcHNqOb/R59WrO9wYGsYiQSYhQS3gmTXHiYYhKicMrWMgIy7tHnBlZ0hzaQ09yRHWI7xAyBAhPEponHMIZwnTBrsHOzTnFogaDc7fvsuRdsyRxS4hA0yQcnK5znp6h9FoBHqe8djykw3Pxd6AL2YtnjpW51hgaIkRz683mLol7gzv0ssLNofwv/7wfebrj/IPn+yS2gGUY9B1MgP1z6j1PrJAK8CYAq1nmDoDVkkK4L1be/yL1/fYGhga0vLC8Rq//Ngq622NMyVBmJBm8MatDb51+RYf9EqEqZOUjsDnRA3Dr5+bpxt4IiWY0OBnWxVv3OxxmFcksSTysxraCoEPArwOcM5jbIHE4GodbD6irgwIxe7UUQjNcjPhWCekLA1hHGJ9wOFgRH84phISI0MqGXFw5zJLnSZzjRCTDxFCkDabeDzFYIdt2+Rgd8RhJuh051lrauJgVjxYrQg+Yxf+KHu08HEy6aDMSjyw0bf86C9+xtW8zmgy5tljKd98fIWF2FF5iU6aZFlG0ZAcWVjimdUznFg4TlEP6AVT2mHG51LBkdUlrPMQ1TkoFa+ev8Gt3R7ddhttM7woKW1O7gw5kHnP1Buc8qhIsjUo6Xa7aJszHPWR7VXuTmPeuHyXifEs6CmhLVlYmUfW5xkT0e7M000FTT/gyXPH0dIjawm6u8a94RQtHV97co2/89w6xwII0y6vvbPNv/rBFbarABRU2T5/XY79kQsHgKAEQkYqImhqJPBHr17j3+w+SDPf5Ym1Ll8+tcyRVOCpQHgCZ+mIgtwoznYt662Yr+UR79+ruHjTEAQBJ08s0Bptk9TqTK3gZze32CsFUWOe8SSjGSQ4kxMLRSQEWIMXYJA4GzCxnppwTESDkQcwdO0YN93nblTjp+MGT0clQeI5Ufc8N5fRKTKOrcDx+SXW51PqjYRIVPhJj6I01OMWvjAkWY+vrEWoL3T47/5kg4OG4o8vHXL6x5v8j988wljX6PoMYxVahzj/yaT7IwCtBy0jwJICPQtvXj3g2n6BzwzdyHBufYX1lQ5RaCh8zMR4BpkjVV1S6RBASMlyK6HRPs6D60fw3tOsB9gABhXsjy2H45yqyJEolDd4a5mI+0HGM6tLpUYogZAaIQTx6B5RnuMpCQJoBhVO58iyZHdjk+ixRUxREmrJ5x97gCcekkShIHUlKQXTaZ+xM0S1BpUKORhXhGFIpwY+63P6eJdffmjKy1czxnnBD984z+8dr/Obj7TwpUWoGVR/tWL5OA8U4AkQtkDpjK1BzB++1+PCniX1BU+f6PDEeofFBhS5o1/Aexs97u1P6LSXePJYnWYoqWuFEpaaL4gTkFikzfC5IVGCdk1Te7TFFx6Yo5AJo9EAm024niuMcZRVRVVVWFth/cclUXOtM0tztKZZT+nUUiJpaEaC5bkm/j45IIshK/U2pReUZUkaeGxe0uzMce9gzO405M7Qc+nGLs1U8fTxLt0AFhshf++JDteLGm9/cI33Nyb8i9cO+PqpOvMa/EdsgPx0AAVQIQidB2t5/+4h7/YidouMF1Y0X3joKPORw2cV09JwfS/jzy9ucm17SncO3r1+mxPzdR5a67DSiYg1hNLPyNJySh7OU2BRDpJayFpLI5Wi7GisafBiHOCco3IW52Z1kRACIQRSSozQlMaCl0gFwjsCBKH0SDtgaCPqWuImE/zUY0VM5iNMEHJQVNy5OeXda5tcuDvg4taIrZ0DHlxtkbz0KN98ZpVqb48zS3V+8WzFzZuKSfckr1495DvvhvyD5xYQgHMO78wnqpKPLfA+4UxY5+q9fX78wRZDu0Q9lDx3epFjbY0oJ2ResT32vHu7z5WeYUCdYgp3epb3t3Z45/Yea52E5WbKmSNdTi3V6KQBSksqA4WxhEoRYaHKCKWAEGwxs7bgPusthED6mUsLJ2jrilJUSKXxQmDKEq0lSgjKooK4RRh4bDZAaYEVER9sZlzcPuDS7W1eubhJgWLsIgi7sDTPRrbPD9++RjOWvLDkKXzA11Yr3jl3kpdveMzeTf73Nzb54tkuJzopAvC++nQLdFWFjgKmSF69k/H2rT5BmnJ2XvPY8S6YIUGQMCwDLm7v8fbdHiOfUG83EaWB7irj4QHXBlNu7Pdoqh36k4Ju4yTzcwl6ustgatkZOaJag3qk0HZCEoVIqRHMYp2/z2R46zFuFh+994yExHiJDgK8kJRGgQGPpCgEW/0Jp7ohHZ2ACuhNLX92/iZ/8OZdekUI7aOoQMM4n7lilDCeKN69N2Hx5ojHV49QlYr1uOCXnjzGa7cuMFAVr92yfOeDPv/khRQNBCr4dAADYZBesjFR/OjGlJFosCwGfGF9kcUEMA4XRtw5nPL2zQM2xkCaIF1FVI047GfEUUSzvYQ1JYHNqHUXaCQhshqxEyzx2t4B33tvk4mf0og1sc9Z7LYIw5j1YB+lFIFWaK1nzSQhEbMuFmNZozSWvBwzzgvGk5z+OGM4zagqQyMM+IUnjvPkSgTG4qXCq5CREQRLx6iGEywWZD4LA5XHBQk7JfzJ5QFPHGvz9LE2pdA80jb88umUbw01vdLxf58f8bfODlmaa6L4kBf9KwBKrbFFxt0deH9rStReYlls8vjRGrKaIELNtLRc3djj2s4AH8+hwwQ72SPyE+aCFGsMk1FJllfMpyHzrRZzNYno90lrMbbIORhmDGVI5iQ+y9gbZuSl4ftBbea2gBICITwC91EXUNsJ1jtKw6y3EtaovKTyESpqkexs8XSpKWWIzQ9J601WlufR6iZ5PgEqAlMRk1NVltzkkHZBtdgZZXz//B1ePFFn5Gsk403+zudO8u3z27RFxmublq29A9I4Iap90gL/0pbiKeI6f/zuJhPdwU16PH2sxWo9wuo6qXPc3Bvy+taQYVCnJi316R4xnly3mZYWEQYopYipWEwhDT0TB/1ggZ085PbuAWGYETHETYYkqk5uNdNA0rFjGuWAlstITQbTMb404DWVUZS2iSCik4SEzmCnFl1p6s7SLg9wieD67g7DSiKIcaOMI60ax5a7UE6RaULlYFRq8nQZaINOCeyU2Gxx/vaAP7iTELsJojZHGsLfWq/o6Q5+vM///Oc9klqAzoef7sLGSTZ7BTuHQ7SaoxEoluc7eO8JlGA3D7mxs8fBICerQhKtUCrGGAtOoHSE9QqBIogSBrnjp5c2uHMb7OSALFzgg80+uYjQYYLPPVmRY0RFmAQMXUJe5UgrSZIEoWZ9Z7xBYylcQOUVVngqkSB0jNAhlXMUlWQoF3ntrmF/fJOWLNFhxK2+5d5hBjLGDfbRWlBLNTLIGVYFrsipHFS+Qb8ouXzjHocdRaclqUs4s75Ge3vMYea5vD/i/R3L8/PhJxKZjwDMheaDzQM2DoZEjTZrrZAji22cnyJwbPsa1/bvknlNHMcEYYz0Bk+Fc1CphLIyBEqhwyaHtmS0a7koPK6M0TrjsKohaymusghnScMQ7xymMsi4SxCkWAcFAoElEAJsgbUlUZjgpaLwFinFjHjAYr2gIKbfy9gpMt68MgLvUXGC9RJcSlhrUnqJkZqBsTDuo31OqENc3KVqzDHOepy/dpebJ1doNpvEvuSRU2scu3SDw0PPlZHkL27u8PTSKn+Z2PoIzFzChXtDBkYTUXJqIaWdarz3WFtxdc9xY+sQY2YWYfIJxbhP5DJaYkosDKHNkdUUX04oioJBbtgvA/ZcnZ3c48MmYdjEofFSIAKNlBJhHXb3Om03oitzVNnDZQO8qxAqQEUpFFOccxRFMaP4bZ9acYDLBvRGE9zhFrF0yKQBaQsrQ3CO2Ezg3mW0tCA1qAYEc4StRZIkxZoCDvcgbrLVn/DedsHUgMgHLDVCHlquIwUMbY0Ltw6Y8snrIwvs5XB5Z4qJmiQUnFmICXwBKqKwjrv7I8ZZSRyHWOUxZUZEwTPrKyzVQ1JlMS5CCEXlYZIZpk4wKT3DyYTrA4OpcmRmSSTYKCQ3JVQV3UaD59Yc7bkUFdY5mFZs9XNu7Y85mFYEaZPYj5EoIiqePD7PybiOMY5Xbw24eWtAJWtUwwzMhHor5MHVFs8eW+SZY3PMac/+cMi1geS1jYK375QMD4dMwwCVpohOgBeaAsnbmzlff9jTUAXSFjyy2qARCAY25ebdfXYPodP9FADv7pVsDEpc1KYVjznSEmBLVNhgOpiyczhEBQkyCBASdBiyFHi+8fQJHlkULPoJ6AAVhhigdFBZGI6n7O3t8fq4xc/eucL1zQ2yoIlutslLg8LSraf8V7/2IEEw060UHi7ec/z+qx/wk+uHlKZGPYjwgaalFF95eI2X1iVFCaMfbfLDW0Oq+lEY3+PcsSZ/95lVXjrX5eF5zXxowFZgQ5BNLh0GfOvKAv/T9y5wZySxuQOmoC1CCD44sGyNHce7Ab4seWA+Zr4eMejDfm/MzZ0xZ7v1nwdwc2ePkZG4JGK+6WiHFiUkBZLeOOfOTg+jQooKcmtIA4GQJetdwVpcgdfgBNPSYoRCKWgF0O0o1jtznKHOuWSdH7xzjze3CvZdBVoR+YBUQicVpMIhfA5C0ToesbW/wPaoYiN3jHKJN5LEFizFlnlpIQlIA0FeCVBjmnHBN86t8J88tsjDCwqB4bCQTH2NxNWYSzxn5x17ecy/rPogFiCIUMpg81m3cWsquXUw5bl5jXeepRoc6Ta4PoJRabi8fcAvn/sUAIfDIVbMdCitekSAQYmYovIMxxNGFTQaLfKywngPYQB+TCKAoscgXuTaZs7NnV1GuSEKBcfma5xabNCJI9pih6+eW6Izt0jvR7fYvHuI1RqtNd5Z8gpqIZCPwRsa6QKPH1/knY0Jm9cOMUEbHcUw7SHMFJyFQuFtBXEDOb3Gk8fq/L1nVnlkXkGZ89a9Kb/zxi1+tldhwnW+cULwleMSG7eQUiLjGFcZ7LSHihIoLVjN5uGIwrYRUlATlrl2DTbGZJXhxu4hcPznAbx4qLHllDmxz7m5VWpSYnxIJiU3eh6X1HGTHQgXaLse4RRsqw0O8mCRlhlxZQD//St7VEoR2ykRiidOrPP8mXm++dASnXKDM/U5/tGXjrL9u1e4oB+lN9oiXhHMBWDyChstMi2hY3Oe6OQcPjbH6zf2QOcwUXyQxTSKHMQc46SkdA1ie508Pcmxo3XWmgqYMAlr/M5Pb/A7r/fo0wJ3lcs3PL8tPWl7ni11DLffR9dDoiCkKnJKXUfJKRc2xuy9eIqjwZj9ScHzCxl/VPYYBV3+otf6xCby0S48zCuQGqUU4r4GRimFM5CNe7Od0noqNE6nuCDBIxGuIvAlqBlrooREuZm7jcY5V25v8MrbV7m0A3hNkiTMtxQnVueJhEXd7ztneYGOIg6HBTe3DzEqxhrLqeUmL5xewBQ5O/sHjPOKyivwEMgQHSiMMSgzphrvU4skeM90aogUBEqAUpB0Gbg6u4ViZ7+HmfSRiUBKzaRUEDdARVjrKSpHVjiskGgdEgUzXJyDUZZ/OoC9aYWXmiAIiIJZtSfErEsWu5KWG9OgQjg/k2igsEIisChVAQ4rQDiPdoJQaISK2ZtWfLC1w+tXD7FVgBAwn8BDR+eI3IyNcR6sn7HQmYc3r9xluwShE44k8KsPz5Moz+DwAGvABQnGCQSg7kur0sBji/zDXizdVPONFx7iK4+uMe/3oZrixhmVCxlW4G1BXTq8NZA0oZpANUZWI1Q1JZuO8Q7iOKbVbKKDkNIJBtPy09OYYeFniCtJHAZ4UeCdI9aak6tdfvNIB6oOb47nuHb7Hrmbfd/gwVZ4rRFCIa3Ae0egI8JUUwnL2MF7G0P6j3ZpMWsfHJ2rEZgeQoKXijgOcd4QNSLO3+3TujLm1x+pE1cZzywqHjna5vaVXaZeoMIazjsMJdZWCK0YZXBrUPHBTsHzyyGKgieXIv7przzArz62yLd/dpuf3hyxU4XkZUDhDQEebElaa/CNBxchTMFZlsOctqqosopKWZQ3hGFIkWdMCvPpABZuZozKG9I4BF9RWUccSR48dZRYOJyLGd8JuHN9xKiUiEYDGUT4+/pjpRRSSmzlMMZhlKLSColme1iQW0HNQiAdc7WASFgqCc6L+6yLx2vou4QfX97j2XN1TipNI57w0iNHuPb+Fq/1JxSmIggCPAKcn8lY4i7v7d3ld1+5RvulszzUkbTciOcWQp5uB3z5+Cm+826d792y/Nm1AYOeJw9DtKyouTH/4LlT1DtzCAGqmrKUCpwtKGRMq2bReoD3ntx8Uov1kQt7qVBCgs3RwuOlxN4nbrqNhFrgaUaeSFRQjVE2n7mPlwgRzZS9DlAgAjXLarB451D+Ppvr/ewBBQRaE0UR1vhZKViWKCGYjsElLd7ZyvjT9zNyGYDSfPlUwosPLgIFxWSMEKDxCCVxBlCKQjT4g7fv8S9/fIsfb5Qc2hiEQ5QjjrcM/+hLx/mnv3yG33hqhU4rxFQeqQIiLGnVp82EeV3SVoZiMmQyyZhOpxTZFIHHe49z7hMAfkzpS02AwFc5OIOQEqVCJllFmfcp03m0r5h4COIaNR+CtxR5iU8lwghs5WZCJK1mS1NZNIJUSJqJJhAeJWck6DgvcCKgtDPlAE6Ad0gP49Jxo1fx7Teu8NjiAzy7HHMsGPKLT5zkD+8Mka6c6fpEhVIBqAAOrhN059nKU377x7d488Yev/DwMl9/fJ0HlhLUaEq3UfHFFUv6xWWG04zf/9kOFRFOScbxEpoaQeUIRIwOFHEtRqGIhiV4i8Ah5Wf0RGCmiqcyWFMiRIQKBJNexmRni9cGA2rS8O5hymBaEdVSlHdoZxCEIPVHwvBKAK6itKC9RQpHM4kI5Gz1CmMZjDOMn7lfEIREUQRVRjON6A0nbA8q3poc8vr7ikeXH6FWHvDk2ROcXV+lFmnAMB1PgDqEMV1/QGbGVKrJ1Nd4bddx6d4VXn71A77x1Rf4zefbJNmERO7w9OISXzgzxw8u9TjIBSMr+O47d6lHishlLDUjljtNjq5EKOXJsmymFPsQo08DcEUOuG0aDKJ5eoUkqXKKCmy9yXfeglfu5ZQ+YJEtahEcWMExVWG9ARFitaYeTUnNiIFvgwxYjBQ7gwnZwlGe6UzRtQ66LHA64mbPoc0AIcdUjMCl+DBGDfozErUKqIj4g/MVjz8FX22fIAH+mxMZR4IcnKJIVqA1gskOgUoYTXIIQggjTGXYo8kok7z/rQ94794a/+03j/JYPQdrOb3WpRFrDsYj3Djnf/lpjbVuysZWztqS43f+s6OExR6j2gqVKxhlFbU4oR5/UiTzEZ5pFCGlpKwspRMUxs6ydQfNJCCiRCvIjSdzmkpElDKCIMUKTZ5NyYoKGzZw9WVy3SSrDImbsKyGfO7hBdJgtmQ7E7i9m5GVEXHYJaDO1MdMCchkyqD04DSHk4qrW4d87yd36GdDNPDc06dprJ7EyjY1BdXhkDRus1O2kK0Vms0EXDEbbJEhRoQ453j1L97GCJjNYFhq+kOdtCITKSDpjzMINe00RMiZftFayIyY6bZtRTP5DEZ6rhEjnaOwjn5WUXoFUhB5WG6EhHZKqCSlV1QqxsiIyliEkFTGU0tCYuXRvsRMBrhswLwu+PLpFv/whXVOLYAiI5cRH+wXvHtvyMgmaN3ElwLk7MF0EmJFAPUGxA32y5AfXbjHnXGOswNqwqBjgZEgK5DDPt7VUN15njq5wBeWPaf8BqE9RADGOoytOLfaIgCq4QRkyHBsmExHIDU+bYHWjKcFOhAcaccEQhBIgXWG3bGhsh5bTFmqf0ZTabkVI+4d4lXMTn9CdXQO7SHRsFTXSGdQKsCoCKkjNBZdTUjETJKBdZzqKv7uYwvYuEssDUdqhpPzCaeORKTMZMIXd4f86GKPO2PQjTp5NWQ4OkRnAareJassdtIDE+CcxaqED/anfMGujjUAABaHSURBVPfSlGMvtEnshEjNwBB2xPJincwV1Ec3+fvPfI3ffGKFGzfWePn8Aa9vGirjWWmt8p9/fp6TTdCmy1AmfP/dK+yNKmh08JVBa42xkoiKE3MxsRY455BCc/MgxyEJcJycTz4dwBOdGpHfpYwCNg6GFHINaUriGBZqmiTQjL3DSwXWEriMWE4IXAEypqwEpxYb/KfPCBr1GqG0s5k6BN5bJiLivTsTvvuzW7x6N8NGHaz0DIa7zCU1olAAhsBbUlGBnSBNho1aDK3jn3/3Ds+trfLVEzVC56nyAUEApZ6x1s1aAJMDGlmd54+HPHnyQXbdbBxuIYDIj4CCka7xhxcKvv3OFmXUQjqDmxxAvQs6JBUlp+ZCQq2wuYUIrvcsCGjG8PBy69MBXF9I6MSKiZTsDMb0cksUaUIcnSRkea7BYb/EmJKZcEBjkNzulchmBxVCCHTadbSrcMaQiYBhJbm3P+SNW5JrG1u8c3fIUDUJ6wl3tzbJDnscXZ2jZ1oUXrI/Nsi0TVwolLFMpAARsGma/OHb+6x0V1lqgUzblMD5nS2Ya3Nv74Af3co4tZDy+WMNmgqOSgf5PtgxY7HA9V7Gn1075P94bYM7WUyQNqkOt4hjTVnmoGKOtAXH2gGB9GQI+hPDzZECUzDfDHhwMf4MAOdqLLZSbvcto9xy73DI0rE5qqogDRWnVztc7R3OeqtOYoOEnargW+8PqO02qEZ9ahFIWyCEIDMwyg3T0rK9vc2tYQpaMiXBByGjwZDh/gAhG9w5EPwPP9yiIESUQ64ONblV1ADyKQiHU5J/9cpFbu3ucfboPPU44LD0/N6rt8DPQVjjj965x8Wrt3lqrc3jp1Y4utQg9BKTea7mU968tMFbN3vcObCEnUWqYgyAj5vo6ZBSxTx0Yo2VhqKqKpAhtzd22BgLkJ7FVsrpzwJwvg6dZozZz6i856A/RJ2ao5gamonm+FyTRO6AVjipsWGde+OC7144YBJLFuQIay2F9diwxVTEGCNpxZpqmGLrHaJAk42HjAc9+v0pUkY02its3Orxz7Z7OKmYDwv64zbUU4I4mVU4QuBdn2mtzcuXe9Sv9nDGQ9QkM3MEWmNkRmUVF8cxFz+o+N0LV4m0gjAkMx78Ngwm0J5Dt8AVE/xkQji/QDGtqEsohWT96DKtqMCUOTKIuLe9g80gTGMWuorVT3rwx7twKCY8vJzQUppcdLmy2Wd40KfTSumZGqdW2qzqWScr9xFpeUhNZYh6HS1ysiBm4CUuCjFZjwUx4HTdkGaHLNVjEhUw7I84GObs55qpbuGCmNFklzSZUKkAJxU7NkakOcId0PczuZ13FqhjMge6xlgkTMOYzBYgCyo7Ruou6JyosctcfYdlNaFjQUwEuATyjHBhHpzFlAWqlkASU+7to8KIsWny/Irk6bkSV4xI6g3ePpS8tadQpk9gerz0/KOI6Sdr4Y8rEec4t77E3Ls9jFNc2x5yo29oNy11WSFlwuMPnuLmm3cQqklpLGmcUpY5oY4ZTsZoIZEIWmnI0U7E5x4+RVMaAl9we6r4ziu32RmMIWqB9Ug8gdJMC0Bmf2noz89E74IPB5RRfMzDCSEQCIQUSDVLbPPNuzx6us2vfukp5moz3vLqQcXvvfouTHpESYIpcigrsCXFKCfQAa7ewBY5ka44tXKEbi0kVAGHk5zDTHJj6xAf1jgzV3GkCbX4kwLBjwH0ngfn4eHFiP3rY7aKiHd3K06vwIoY4Tw8fnqVn1za5PooQ0U1nAAhFPiKMIgJwxBXlXhX4SaHnO4+wKmGQI77xDriu+WEsdHQbMN4gKtyXKMFaRelpnjv8X4mJhLMyIcPAVMCvPcYa/GO+0JMD3YGYGch4Ym1Dr90pEHi9inbKTqFyPdBBhTlbFo8qUUgArIsQ6qAOE4YjXPOtuFzpxZo6QqJYmhD3ru1xe7Y4LTiSydCTnV+XmD5cWUnZkH7+RMt6mTQmOeDfcv2yKB9SWhzujE8dWaNOiVJoCjyctbTsBW2qnBOkBuwMqE/LTHGEElH6DMW5tq0lo9DugwunSk6ywlVkUOQYKcDXDbEFxOEyRFViTYFQVWgigxfFThbIgVIpRBBAFEKUYqIa/TCAfUFTVNmzMuSmi3pbx8wPbTEZWc2/u/lbMbOCxAxRWEZTaYoYXnxZJNzSzGUQ3ICtouA1y9uIKI6QsLXz7ZZifl4pOvnLFBotC15Yq3F2aWE3V3Y7Be8e3uPh59oIZ0nqDKeOLnEtc19ruwPwSusEwgU4f0GUVlZdJqQTzI2+gULaUwiGuiq4EgnJVW7TIsJjyx55ompRI5vOU61V1FKEeqAINQESqMQiPtyt4nxVM6S5YZRljEcZQzGOaPplKI0FK2QE0tzREFAqDocVpp3bvUYizbUVlFygjBTqnEfdAT1FowmQMEDawu88ECXpsrRhPSo8+qlTe70MqSoeOb0Gs+sd0jh/ois+nkAjVNo5TnSUnzpoaO8dfcyE5nw5tV9nj27ysmkJMCz1pA8e2qBu9vvI5IFhllFkkTEziFtiZkMyWyGLkfc3trlSGuNleYcjek23zjXZakd473jsSM15lWBtYK4vYCY7CGlRGuNUgIpBOA/4hFLP+vVWCHxKErn7ws2ZwdU3NwTvHikgRmPOIgku7llZC00NLgDbK+HTkNEIPFBDCIE0+NoW/JLj6xwejVGFBN8s8PlHct337yKiBvUJvf4j5/9HCvNAFyJNwKhPgVAJ2YUUYDh2VNtHl4KuNRzbAwNf3ptxG+cDmjFkpSMh480ubK+yKWeYFRKKi9w4z7tdpsjdZhrSOaTLqs16KbQTCDvV5xswZFOBy8gkbOJJF8ZIj+Amr4f8yzeO5z/kMCcUeiJd3gUCIEXGicFLhQYPSNrzxyfR+GYBgUEIYsy5hfPLNMW97i+t8eOC1Aip0Ay8AY/HiCU5cnVOl9cU0TCU0nJvUHJn769yeZYkqYBz56c49ceqgMVzoMKPqMW5v5sIdKzWIdnzqyyc2GXia3xypU9vrLUJlERnUQwlyieefgBrr16mSRJGGeGlVaDh04f40i3xvqcZrkOKhvS8EMmOyOCzjr5pI9UGTIIGVYSqbqE2pNnE0zQwXuLu8/8ejljm1WoQHpiM9uFvQDvZkOIDjn7rgCR9elVY3QnhqqkY+A/OrXMr6y2mfqSP560OH/hOu/f3GA6MZQy4NzRJb706ByPzEv6ZU4YJdy60eOVn10mWXiYbP8OX3rqAc40DSUeLX9+YvOjcVdjPVqJj0b7NwaGf/WDD/j9CyMm3Qd5uj3kH39pnbN6myLLmXZP8uMrQ65cvMBDa12ePdFG6hgZJVSAKXJiLYmUweQT0BU+7jCuEgZTR1nCtLT0xiX9acnueEbGFkVBVVVUZhb7pJwJkQKdM99pgynpNBNaqSZVhtW5JoGvCIKI5WbK+GAPK2N80iQrK5o6Q2Z7EJ+iX5T0vOXtW5tcuLnJgyce4MuPrBBNoNKePB/yz17+KX+yUYO0zUtLh/yf/8ULzLkDSBd+DrxPAGjdh2zr7GSLXGj+5P0+v/vGJuf3PQ2V8etPrPLS2QadSDAlJtcB3oMyUIyGqPsCSy8klfdUxmEQIBT1PCeq1bh9WPCHP3mPN+4espnDIJsQpBFW1GbW5Jgp3r3n/vTj7KeMEdohTE4QBCSNJqIYcSQ1fOmJM/z9xxooVxHpiKkP6RkNUtIOSuZjQ2//gDRN8T5gbGfHFWjpSPyEpsrZVEv883/7Ct+7WTCO5+iW9/jtf/IVfu10iq4qCD59WO5jlb7397tcDuEtkdI8c6bNrcOC/f1L7LgWf35ln1qtxgtn2sTliFo5IUjqTL0nWW2ydwDDSYlRmusbu7z61nu4IOHZ51/kq8s10hCOLEa0F5fZvOkZyAY0LZXKIbsfmOXsIJ/768t9aTzUY3x2gNABhQ0oTA2mBQ0/5eH1VTpJwXDq2K8CfvDWZd6+vk13cYkTax0ePr7EWnceGQSE05KosmhhKUVFVo3omxHffmfEd28LxuEJwsk1/usvLfLN0ykKyFTAZ51r9LFGWorZonuPLUt0CHNhxOdPz3GwXeflu4LbQ8uPrg9oNps8txRTK/aZjqZ41eD29QF7Ofzkyg6vX91je2IY5RVpItlV13n8m/O4/gELtZRnj8V8/6Live2StFmj2NpARNFHcyH+/gkaDnE/ufb4OKDGkJqoGImYLFOEcsJTKwFPtSdMD3fRzTU2Dxyv3hry1p2MsD8guTGgFt7i2TOLPLbS5PPrc7SUpzcZE8x1OJQpb50/zx+9tcNYroHwfOV4zH/59XNEZIzGnrSefgZ8fxnAD08kUgE69PgqJ1QB55Y15qkTXJzucn1/zLWdAT+4AEEe8dxanVoaMB7mrDRD3r1xix+8dZ0r/RgWTkBUkZkxrXHBtKhYb6XE+ZAH5xf5wgMLXNu+jc4rgkAwrM+aNh4xs7i/egxJlWKizv/bzrn8xnXdd/xzzrmveQ85MyRFkRIpSrIYS7bs2KoC1i1iN6/GaRLELZIA7qqrFAGCFF20q/avyDJFFl60aJKiThE0htsoseNalh1ZsWTTkkzKIiVyODOc133fc7q4I9cFHNhy7VXz3c1u5jv3nvN7fhhmEaFwITHMzrQ489AStu0yXSszLDi88PwG57d8AnuWsS7QCxMYJ5iLbepScXqxzFQ1RbrQA15+2/CTVyJ21Qz0eyxPJ/ztE5+iVYwxxqFQVigdgXy/hessxiAwQiClwmQpQoAtLaZqBaxCka2tLXaHIaNEcrvdRUuL2lSDVAsKRMwcWsJtHGJrlNIbhwjbRpiMbqdDUxuOHTyCiGOMcrCmZ7l0q8NWd5+o1cyHArWCzJqAwxQYh7zK6ECWktkuaaQhTfGkzyPHpvnCgwdw44AkHHN14PKTS7e5EXroSh2GHQQJs1MlvvHgET593zwLlRB0n9R2eenagB//x2tcuTFkP45Zrvj8zeOrPL5aRccx2B4KEMkYlPeeBr4rF07RRoKUpICwvDx1UlBQ8NhKkc7tabKrIZuBw4V2wn7SJZYlHj42zXB/iCUi/nClRMs7wjMXr/PclQ26oUJVm/zi+pCjJzLWFucpZiNWp+FLpw9yqz+kH6TYSR4i3Ml/9eR1vnMeempAYiSxJaiKhLWDDl9dLbHsJGRphF+Y48VXbnJlu0/ST0F0abo+a0fnOHPyMKemBUdaEpEo9kZF3twRPHvpNi+93Sa2qxz2xnzr0eP8+e/NkPkjCsUyOksQShGaIu9t37sNlAIFhJPb2FYKIfOOFlLStIZ85ZET7Nv7XDy3yUYn5eZOn3S4h50c5ezqYTK/zwE54MBBxWJhjuW5Gj+7FnLlVsR63OOZ9XXuPfQJCkmfarDHEycOsX2jz79ebDMsTDaUIA/27nyYTAKkSOJEgl1B2YrVIw1OLs2QxiGRKrM9Nrx4eYNOAJTKrDQUXz51lLWFAkvTEuNBlIzxwwIXb2b86PwmP3+riy7MQLPBk58s8c3fn0P6+1huBa1B6gC0Q+J6v9XAdzETbISQ2CKPqfMOoHxn+WWQGprK4t6ah50GXN5t0xtnbCQF1rcDqraPW2tQrFQx8YiWZ7j/UJOlhkddjFnfGmMLi3qlymyrgVIaq+jgNFq0R322+ilZGOcAG8vBsmxElqCyAMfERNVl6O0wZ3f45plFPnP/ElWVIuIxRRPy9/81Yv1Wl6oK+LMHWvzl2gJnZgw1R6IKNYZxTGJV+bfzN/jBuU0uj4rEScSxUpdvrdX5u08vUpYGaXt5O1cKUC4oi/c+/XJ9YHJRiMbLNAiLt3x46mKbfzj3Ble3fRxnirIb8/ipJl+7r87RaYcwU4yyvCDgiZRXogrPPvscJRnzJ2unuKdhkfh9fAr4ssx3/vlN2kOfvbEmyuwJ9UeDJXFdRdRPmJt1+PzxMp+7p8aphWmEZbGxM+at3QG/eH2T+fl5Dh1osVgyLHoRjYIi0pJuoBkFHv94fp0fvd5lP7bBRByvpvzF2RW+8QfLHHCzd6KAO/ORH0QfHMBIjG1kTjWSkq1I8PTrPX7w3DbP/6ZLrVkhCAJWZot8/cwiX1xxaYoB41gTqBqOTOj4GZEq4zkuHj5FHaJICIKA17wj/OeLV/npi1e4NRBQbWEXyyT+CPpd7p+Hzz50gs/dN88Ba0gy6pHKApHbxFceo+0NGs0m1UoZy0QoHRMbxY39mM32mB8+d50LHejbMyBjjhV7/PWjKzx59iCer8lc8/EaSDoEq4Qxkni8j1u08GWZf3kj5alfXufpl7exXIuSlTFdsDi5PMtjJxd4aFbRNF3sdEzmVBjJCr5xEJbMZ4oy0GmGyAZ0Y5trPc2F6x1evbrF0B+zMDPF8sI8X1mBeq1GvVLBtkDHEWkSQRpjjGHatYnSlCCTpHaRgXa5dHvIuUs3efnNG2zqUr5R5Yf88eoc3/3SSc4eApX62I5Ca/sd4z4eA7MRmSozJr95ipkPwjBIitwMBd9/YZdnXniVX2/2ob6EqjaYUSMeW/b44umDzJUlniUmw+uAVAyDvEVaqVeoJ7tEOIwosp8ohmGGSUKKtqDsqrxy7MckmcZ2XBxb5hS4LMIiw8Rgl6sMUsGvbww598YOL98csjXUxImBRol69w2+/aklvv3509QnW+iOJ0hNiJrkGndj3l0aGBErF5/8kqkYIAlA5cWHEJefXs/43q/a/Psr2zAeUi4pCo5iFMQ89snjPHykwQNzFk05omhpPEtCmi+0+HhkCLSQ+XaSUlhkKJ0iTMJeWqHqQNlKMJFPnKWkyiO0y8TC5WZg8erltzl/5Rpv7Rtuxx6jCIQy1IoOp2vwV3/6EH+0BB57GArElIgHAZViAaPMXZt3dwZqMFITkYKWeMLKz0ORkkU9RnYLTxnag5CfXenw1IU9frXhEyUpVcuwrypUkg4r1YwHVmY5sXKYA1NlGm5CTSWkxToiA5FGKJMhRf6Dsgmxs2AJlEnRWUqcJPhaseNnXNnqcW1rl+d3bEaDPlFqyJwKfqwppSPWlks8enKBJx8+QmMKMBGjcYdqeQqBjU4EtlT/ewn44zAwB6IkwGDSX6gS6Qn2WIJDkN+a0sJgs96OePo3Hf7pcsBLtyBLxqgsR9klRpIaRa1S5FjTYc5LWapKGiWXVtWlZOUBdYwkkUW0cpHjDruBYHOkuD5SvL0fsNcfEQZjRJaQGoG0JcoYlFLcszDDVx9c4IkTFvfWIjBtMHUiVUYZsFINekTmFhhjU/1w/t3FE/g+StM4n94UelIQdQg17HQH3Gp3+N4vO7zZGXN1rOglBQhtkA45KzlDjPYQQmDZLo7jIKXE6BS0xpLQ86P837qDCdUa4gikwLFsCqbLSl2ydrjAZ1abnD3aolUrTr6bwfot+Lr/qz5CA1Msa1JF0RohrbywCoyCDLeguLyrubDZ5rXNDtc2O+x2RvSjkGEcEpcWyTJDnOX5uNYak02mQi2BFDlmSuoETxnKDrSKDvNTZabrRR558ARLM4rVWWgBrtGkUYiyHIRlfdg39H31kRn4PwVZMDpvHUqluNPCtaIhoclInCKpdOj0YbMdsr7TY2Ovx8+3HIZBTN8PGUeaIEnJMo2cPGGzU0WKtqJZsliadjne9DgxV+L4XIH5GuggpVSwJgTKXFrnRR3Nhz7i3lcfmYH/X/Xh0LW/0zv6byUa78eJNDDWAAAAAElFTkSuQmCC;" vertex="1" parent="1">
          <mxGeometry x="50" y="170" width="80" height="78" as="geometry" />
        </mxCell>
        <mxCell id="iK3zEx9ikkL7i1Esu0Du-4" value="" style="shape=image;verticalLabelPosition=bottom;labelBackgroundColor=default;verticalAlign=top;aspect=fixed;imageAspect=0;image=data:image/png,iVBORw0KGgoAAAANSUhEUgAAAFIAAABMCAYAAAD+8OBwAAAgAElEQVR4nOW8+bMdR3bf+TmZWVV3e/dt2HeADXBfmjR7VUvdkm1JITkm5FB4IuyJifB/ov/AP/p3R3iZGI/aIcn2xEiW1Gyx3U12c20uIEBiIUC8h7cvd6mqzDz+IevetwAgKXbbv0wyLh9u3aqszJNn/Z6TKaqqTNsAMEAGOIjNZQWk+bfs+77vSQQQD5RADTiUHsSmG4EgINQIWXomNI9a8MCoeXs/ki5ouqBZTUkEMgRDEZtnDQRbM2YHT6TLEZwCEtMYpuMr0jQkjWVy2U6mpZB+MXvz/Hs2d/CraT6H2uHOpXmxNPdOB2yAnAOU37cAFg9EhIBgEQFV0DDGmJK25M3tZo8YpkaIFMAYh6Ob3qFpCMZmCAWuIYUKyIQDBFCzN75DQ9prft8PD5n/l2juwa/y4OX9b5fIHqtOBmyaAaeFUDn4nGkGK+ymZ6IDLYAMkRIxaxgGTX81hAp8w9kmjUto02YuTTrOARl4EAHnuvtGFLEHRMVOCSkKZsIEwJRoUjfXCn5NhLQHO3qAEydE1EM/NGIxXXlLEu8akKabABrSbMSn33QEfgXCp6ArDLaWMWFMUdUY7wGPOkeV59SuS3f2HGKOg5wEOQJuFrRNFpJCMTaNRREEy1Q30PxTE+GTXpBm4dkv31+5HSSkPmI1ZD8H6r5/T9reYHU60FEjYg5og1oo2yQlNgZdh+FH1Nu/ZGf4FnV9k0J2yLTG1xYbLRGHl4wyc1SSs7mWk+fHmO9eJOs/CZ0nQU8h8QguWqyNzagm0/L75tB8pjo8A23uk4li+OpNDhibhy3KAVGe3LTf4kyaQ+NkwCMSIQ3gIHQajigbAn5M3P6A4eB96uo6yh0ylukVJaI1hFYSfS3AOIJAZWHoK7xmWJmn3X6Mbvs56DybPnYRrBAoMOrSyCYMECec50HKhpgFxG5afAtQN1z86xDtw7QR/5AfPudlBiIeQ0DIgRb4ifX3EJZg8DajzVcZ7r6L8Uu0sjHtzICdheEqaA4xS1yiDkQxNuBiyeKMUvttRuV9qsEy9e4yefsunflVmH8KOIVlMT2ngDUkPRubKQSmMt5MS4GogGQYHtRmX42Q+5s8TBe66QAOt+RaeJJYZ4BtjEpDRLPM6O4rhOpNfPUaub1Dt6gwYmFcQBUg76bOTcPJEkFAjCczAb+1ic0C/SwnZiPGo8+odz0jP8SNl8nOfj+9W9uHxhj2LLJme5y6n2qHmejv2Q4S8gHLPBFpCzhCBI1pnrLvGdXG3vpInmWImqSeBJBtKD9GB2+zs/2XFPZj8uwmOZuYYCC0wXdBOhDGSYeK4qlRickqE9AQcNJN/XrBkFOIJ7MbhPp9dtfXaGXQPvYD0MSV1TiQtwQlEIIm12nCqc0i1XViAvdolvoKhDzQHmQ7jY20ACFAVYFrgbWN1pyuOmgVkGII5jN0+Bqbaz+hsB+T2btk7OJiaOQqNnoLsEIZA7UIwVkiFok1GUobh6gmfScGsFgCxuzidEg0JVurhlZrAekcBzmP+prk11qMlT2+CBkxlogryfKM+BX14qMJOWXvwxYsEcc2HkUkGfi8M3EnPIFA7mwakgcpAtj7MHiT4e6rxPptimybLNa42E8ExCd3yG2COLxpU5mCkM1iWj0MDj/awVRbeK3INTn0U0dVIqLJ9yzw2KpkvH2ENqdgpkNR9KHR2OCIEVxDM+MKMAOSBW+he3HOr4GQX6J5D1HANVGeMgJKDAGP4D20TCcNUpcZr77HcPsq/fYO1g9wEQhZo6sAW4IEFMdYO+Tdxyjmr0DrCKghjjap1z+i3rpBbnYajyC9eS/CqrHULHYiu1vvQX2advcE2Mfx3jKMO+R5C+cKorq02I3v6HVMQHHS5pGR3VcipNKIThMIH+rcZYmQihLZAXaAIZGK9699xLnj52n1T4JuwdrHDLbuYaqSohAIruFETdGErVETiWR4ncOHx+h1fxv63wAWgRxTbFBUr1BulARzE2t2EhcDe1FL4lQTFVfewevb6MZJ5OgJnMvY2V5h6c5tnrn0FCo5UWdRbzAuYiVvPIxfrT1ctHUS6x5cnRAa3xUI7GAZANssjT7h2rVrbCyNOXPsBLAJw0/Y2niXzK5QtAJhPMJi9/q2FYgniMFLGx/mUBYhPwt6HuIRoADThdZp1HSTRJsUZCuGSOIu0QBawWBIJ2tRuWW21t9mbuEb4NqYfJdP7v6CneqXPH7xWY4VL+FMn6oWTJYDGVHByFfXlQ8+qYd/EpL4gHXJ5woMsdTALkvj67zz/t/y5ts/Ya5/lpn2MWBIVX1CFT7AZrfIs22s1hDzJNJEkEAwAW8MXueoda4JLf0+r6FOnCtDoh2hkix5oCDQIWqPoB2gDbFIjrwIudmkqm6j5TKwTas1ojO3zWvv/gfe+ejP2RzfRAnk2QwxFqiaX4mIcJgj9/c1DRf3fK4IBK0wEgnscHf3DX7687/g7r3rFNkpvnb5Kdr5HLBMDCtYXSWWy0Stsa6AunHwTZ2IpRkSC0w0ZNHjGYBfBpbAVI2KWQV/Dys7INUUGJGYg+ZNGBqSS1EYqIZ4E9GwiY43kPaA3DjOnTrJ+9d3+OUnf8Nw1/KtZ/93jvW+DqYgRiUT2Qu5J37mgVh8gt0BExjwUYQcyZiMHKcGrUCcSR2ogo0EAmKEESNWhld54+p/5Pryj5nvH6VrHUcXjzeAQc1oY5WWBgq12OiSeTcjcAGyCjTD1n1szMGMUbPGMNSE1dexfhs6x9OgBkuw9S553Er+q3FYdY0KmkysABtBt6EjYCJdY9lZXmJ24Zt0Q5uj7SvgM8zcNh9v/idWf3adP/6df0WXC2DWUQyiRxK9bA1Y1Ju0lgaCjrFmTMJZswfs+yFjI0QiKibpQt1/S8SIUrHNVrjGz975c5Y236c9k6M+5ze+97sYMoQA7EIcINFjtUEyVBNHUaM+JncjGkxU0AFixmQSKMcVbukeRlPIppSg2zgZIOqJMYWgyeIlHzH5lqFxJRqgMo4wsgJxAHqSnjvH01d+m9ev/Snk92n3+vz1T/8tv/Ot/4MOiqFNUit70ZvqnqmwRpmiyQ9pBwhpKZp4s07AXXBTnRkVolSM+ZQ3P/y3fHL3rxCNzHUv8vWnf48L/W9jyIFNiJsE3Ua1Ro0kYyA+jUEMgQzFIq4CBCMN5BZBpCTEFTyabhfBSpqEsb7BDiuwoVmgHLTVhIX9RhOVRHYJchPMp6Cn6NqzvPD4H1MCb3z476i7A65+9me08pJ/9OK/INDFyoRQKUQ1+83E/szBFxJy4pqJb8K7BnBwEI0nssFHd/+ODz7+r9hsh7nW0zx+9vu8/Ng/xXIEi0uTjAM0jtMYxCSdSATjQDNUC6KxiChRaiwQY0QtGKmxuceYZgWDoD5D1RC1haIJYTexCQbYU18hb8YdETxR1oE1EI+wyGLrGb7zvGFQLnPjzk/Ji03ev/7/cvniU5ydf4kCh5EuGvPUd0PIGCPGfD4hD/CpnYbXSTfGMAKnBAORXW7vvMFr7/wZwdyn3XFcOvMP+PaT/wzLaQhzTNMMWqMaSPrE7WGBwaCxQ4gL+DCP15xKLaPoGGsB2iaGjLKEwbBmMKwZV1CHAnSO4GcJ1RF8tUjwi8Q4T4xdNLbQaBtxT4ZIJENMTNCd1A1jdWlxju9/418y23oSiLjuNq++/n+zXX+IsAmMQSx+ghUYmrkYEoL+oH58gCOJE52QEJJgS9QEApENf5PX3voLyrCCaM7po0/z7JXvk3MCQhcrAtEmLpY2QgvVjKgZdgrptxCZpzDHiCbD202EUZMeMFhtYUJEKYmaJm8kQ+hgKYjiGgPjsbZujEIFoUzXQ5yqIiMZhk5yt2JCpUKMFHYex7N858U/5sev/2tCuM/y4F1+8cF/5reem6NDB2SO2oN1ghARM0Ha3SNRogf4NKkjA64g2h2UbUZsc+3Oq9xc/jkzs0KbZ3j64j/lqHuOssroZvvSc9IGnQNmgW2i7DYiLyBdyBaQ7ATWtrGySKAEE7BioJa0EMY0eQNNkVBU8AYrRUJho0060g5TBOVXgbWUuoi+8RwWET0GHE/TNB5LiZIRdJanTvw+9y9c452rPyTrbvDhjb/k7LHHefzEcSzHwCZmUuo94f2cbMSDMNoUkjeAJ7LNWnWV63d/RqenLC9t8Nvf/CMu9n8HwwLdvHcojZOD9hHmCHJvqr6sSFqgzIJpg+0DfQw+RSuZkMBfSVbYSxIP0yjuXNIiRZeAX+NBdkE9KusEiTinUFdELB5BdR5YTM+R8KKB9xRuBsXyzOUfcO/+e6wNXqXIR3x443UW55/jSHEOl2dEagyemJLAe3N8CEcetOVSQyNSk0AsMuLqzVdZXv2QwWDEpbMv8/Rjf4jjAmUFSR/4ZFB8yj3DHLP9MwQRSkaNCNYEaog1MEzxZt0ilLPU9Qyh7CV9J60UFroe2B5q26jJUHHEqGiISVS1seCmppYxdRwTxgMoLOSBIIaZufMQ5kFbRO8wFFjNsUDQyELrIt/8+u8T6jbDcc1n9z/hxt13UAYoNWUcUmqFFcs0I/MIrjxEyBKK2KQMEhlXwj02B59Shi0Kt8jXzn6TGXsWQ0E7LxK/qQK2SWwZcHNg5giS8i1eAt5UaeJxF+rN9NdYXNbCSIsQLUFzYiwI0VBrpCZSK3h16YOkfFVRgxsB2wS/hY8VUSKSGzRERpVFzTw2Pwl2Acgx1qLqcFIk0AkhZ44js49x9uTXMTLHOAy59dl7DFhCGWANOMkICGGCLD4CaTtISJNW2ccRyohA5MbtG6yt3yH6wMLMFZ649H1yetR1haEEKkJo8jhWwXqQFq49hylmCOKoCYkrzYAYN6G+B+E+yA7YGmdLUI8RB9aidnJ/EnsxOWJaoAZjA+QDsGvEsExVraN1hWAxecbYW0p/BJdfhM4ZoJ1yNhKJPkWRVpNOs2Qs2Is8fv57ZHICNcLt+x+wvHWVMStN+CmEGBHZR8GHcOWD8A6RwJjImIpt7tz7hO2dDVp5h/PHn2NezmExjRNdoQTEmMSUU91aIJ3TdHvnQObw3mFNhuJBB8SwBWEVwjLoCsgOziZMcwKxCXXy/xqREo1kLiQ8Mm5AfR9frRLrXQgRpxmKw5sexl6i6DwJrZNgMmpfo4Spg60RnORNANLj9LEXmOmcJcssY7/Gzbtv4lnHp2w5IjY9O7UfX0BIjRawqAiRis3xbdY2b1KWJXPd43zt7LNYuohGCpeWJsSImInnYfA+QmxB6yTFzFNYc57a9wmaY3EIERMrqLegvA31LdBVjNlB2MboEKsVoh4TA1YjJtYYLREpIWyjo1X8eA2tdslCTREFGzNGlaD2GK3OC+Tt54E+iuAlEPEJXJKkXokGDQWGDnPZec6efJKgHteq+OTOm3g2SMrFYKUBKaTxD7+II8W0AIeYFpHAnfvvM66XECJHF09xsn8OjZqSWzggw5gsGW0LAYNKB7QLcR6KK3TaT5LZk/iyndAazRqrPCLUy9TlXWJ1H8IG2E3EbiGmxNqANWDEY8wIkW0Iq8R6mbpcJZSbmFCS4XHqsRGquiArztDrPwnFGTAZQUBt3gScyZ80kGykGjQW5Mxx8fzTqCqSVdxfv87m+NMme59YMDYpjT0E6GA75P4UjQ8GNZ7bd98Au0Gr1eL08XM4IiIR0aLxaQwGSYOVtFDG5um3uAB6iWLuJQpdotwapdqfGJILIzXIDjGM0cqAr3GFYKRAtYdIIrxGjzAkskP0G2jcBT/CxgqroQkTK5AumTtGe/YKzDyWDB6BQMDQTqAOjVfi2lNswxhHoMvxmTPMLcyzPrhPlF2u33yPU0/8wymJVCelNl8i1o4EFEPAUDFibeNTbDamcMdYnD+FkGMlVYL5keI6DowyGnlabYevIZugRiXgjqYqCH+fuLVF1HsY2QSTwjYxJSYqsRwRpCaWIzAOyzzQAW03Uc4GkV2EJPZGYorhG5OBGLwuYtpPQ/cFyE8BLYLWCXthAk9HLBN2NMQQMc4iJK48ceQSW6Nb5EXFrTvvEZ4Yow3iY83nJ8YOEFLNLkrytza3VijHW9gikBV9FjsXUXoo7ZSTa8s0gdRtu5QMtA3nKynsjhn4E1D8Bu3HjjC88UPQq+R2C1d4TG2pdgMSKzrtDGIJYYRSIdohxl6Cx+wGmBFGDRiDiidEGGkHlT7GLeDNJWau/J/AJYh9kAwrGQYznaSQJWXWALamlRL0Boujz6mjz/HLD18jLzxVucb2aIlO+xwAIUacaRbuCwnZJJEUZWd3JWllNcx0FsnoMynYPGy5ZPK/iRI2IaUNhORccwHU0Tk5otqcYWPrx8j4M2ZbGa25HpRtYl0mmIwq1f9QY6Yp2w3QmugLTFEgNscHxzjMYfJTzPQfpz33InAJ1eMpGm3clYND3Y947x+/wVDQy0+Qu3lUtwhxyGi8Ce06qTtjmZbrfFGsLZhGdYxZXb+LNlHO/OwJMnoHbz/UmTbXgqXJvcQUQ2MR24FwBXrHyd0l5lvH2Nl+le14jSKMsTZHYk3L1QmtUQsaUU2ArZiUKFOTA44QLCoLdLpXyLqPY+eehu7lhEl+5WaY6R2h3ZpjMFZ8KNnaXiXMjzE4DFki4iMq9h5SaJrKlze3lhDjAcNs/xjQ5uFsnTqeVMtOJDs2Vw3gTCNecRa6L+Jmc+ZnFym3/pbR8Drej8nzGh98KhKVhGGJa3I7JoIRrBgUQ+kzXOc4+fGXofccxJMp62g602rMv3+ztJilyHvsDCNCxc7uakLoaRboUWWPDxIyI1XWjhlXG1iXPPtOa74pPp74Uw3pDnQcp6UfEwwjYDAokUg0hjwHqgzKr0GnQ9E+SrH5KqPNn+CrDYIxTSVaQFCMeog1QglBU8bPgA8OZxdg5gpwHuIJYmhhch4qdl+uGSw9MttHVbA2MhxvIFTNjJqOvwyMplObNiIyQExAychcj6QfJ3jcvmr45gkz7SPViE9idTAoIRFWDNYq1HkyCHoM6llMsFg1KVEviuDRGIleUV8RY00IClJSdA3G5njNyEMbzBy1JiKqPDjH/eWfB8K8B5rF0MaaTvpmldF4E0ON8PmAxQOEjCoYMQTGiKkaLC7DSNEkh6Z3crg+SDBYT4Ml7pI8UUMkR+iSyp5iAhvMFow/hZX3Ga7dwmhNu5hpYvbkq5rg0dqjtSPUgveKySKmJxiTwHDUgHFUAk6mztBXbAZDC2sKVBVjlbLaaeLtfSXUj3x6X9M4qfauEzdqIpaRpOQbivHQpVGakjumIj9JXDoSrFiXkHy4Tdi9yvb2e1TVXZzWSJQEfkeLUYtoUvA2OmwosNFSmAKMRVRTQiwrACGY8Ih44+/XDBZrUxm0GKWuq8aPBP0CrjzAkcY4PJ4OHVSFEAJFYdnd3U2A94H2kJpr07wo9BLCLRGRbKo0nRjQAkYrrA+uEsKH9DpLOBOgrnE4xFoIfhImIcEilSOXDBMyqCJiAzF4Uio2UDh9JCE/X5wPNk9NjCGpJxFmen0qAo5Jcf+j2wGONELzgMPZouElqP0IqPbd+YjC9Qk6okBsA01qQBomdYAYcD1aveNknTk8jto3kNm0vrsi5cCTD2CixcQME1LtkCjJOceBCkJISPuvVFAfiYwpq22MAV9HWkUPO7EN++f4kPaQwNEQKWjl84hkqCpltY0yJsmtY8+x3Su0UolIZvb7PoBranV2k+UWhyGQ54/RWWjRsT1Gq69SDt8k6BKFaXLf6pukf0HyImCab1aDUUNUA6GAWGCtfAkt9kUtENhhMFrFOUNdRXrdxWaD1CFufEiB2YPJLxzQots+Aprhfc1wvEHa4Fbve+RgbVCy4ymGtaYpGpMUv0OJUhGwBAos81iTwxy0JRA3t/DDXTSuI+JTWCi2oV2YAinTXV0SEZXkKoUck8VkyL6gTSz4w8XdU7PJuFrDOPDR0OscBdro/lqfaR3QIUz8YGcRwSJ0mJ05hZGCEAKD4SqBnYaQ0z0g7BelVGZnEkElFRQINYYKQRAcFoclT6mdugt6EnpPYPqXyfLjBFppSCJTVBvjqW2gNhE1jQqYbFTUBKCIGuRLFIke2HZ56LpSsVsu4eMWqhFn23Tbx4AukO0B1/LwBTvw5ths8BE6zM2eJM96QGR7d4Uhaw0hDz/2YMcGj23UfyJgG0sPwwyGdio/djGh3TqEasRgWKLT0pNGLxkIJhJNJJpAMBXYkmhq1PjJCoI21TCfS8aHc6KqoqpEKlbXb6VSl1DT687R6y427pvss9YP2+1xGNidXsqYnTlGt9PHWsvO7irrm/dgqtAfXH0hlYmk8k+X6hXrDOoC6jbWtzHjDBdSzgRzD8Jb6MYrDLc+IPpt0BYa+wS6iaBiCWIIJhKMJ5gaTEmwo8Sd09KayQQ/X7xF5NHEJLJ0/wYqY3yomJtdpNteOCTWEyI++J5DRVQBj0FwdN0craKHywyjnU02d5eJc0mkLPGB1TfERpQbF2cyr325YDdxj+IK1B8yXP8ROys/oRVXmZ3J8ANFxGHUJT1JMmLTSTQlz6lK92Gk+jLmJvWXJDUSJaB4Ijtsbt9GdYAvW3RbpynoT8Ml2ffstP79UW8WIg6oS0+bDudOnyf6gCsqPr79Np7A6nCduslR174R9RBB6yarOGJSa7NvxOlNYQR2BeqrrC+9wtb6j+kWt5ntDGC0htMxaIVoRXK3UswtjR60IYeQYUOGxCwZmzghT0KuDorg3hDSJ4Wtu8OdlOKrd4ESa4fcvP8WqzvXsC7Szi5w4eRvADmZJM0vpuEKtanQ4YuWUBXaucOQc2z+MrmbZ1RusjW8y73hR3Q7eYOiW7LJ1gZJnJQ2tGc0aClNArnRBD6F6xJBLJnrYJihGlvqKqRKC2lyIpKymSiYmFbBRIdRC+pS1LO/mlYOa62DYi77iFvWY9qdLoqSZRlKScUGtz57h6hDyrFnvnuemc45MjrQYAdN/uRLFghgGI/LJg/S5vjMixyZfQZVZTS6y7Wbf4dlQCSjLl0KYkKzXSNmQBehy3TXqYuQeXC+2W3VBj0O9hlmZn+Puf7/hthvMfCzlLWiJjIti26i82SZ03aSiIMGSovS3GtoRDNMobzpDtiJOkubyRDA+4oEpBiS0xRZGX3M7btXsWTgO5w++TVm24sIDsEQ4j6d+IiU7CFCupSkByIZbR7jsTPfYaazgI/b3LzzM9b9RwljtOl+xKZCJ2l8x8lHaJDyGhUlYBjHZuOvmYH2ExQL32d+4Qe0OpepYo6fcO4kP94Q0cQm1lcLKo17lYBjDIQmEn6AK5ttcjAZl6NT9EkpO0OpQ5RdPrr1GjvlEhpa9FtnuHDmGQpmgQwf9lv7Rxu0Q4S0FEU7+UwUKEe5cPq7HJm/hK9LdobXuHbrb4BdxEHlwZoOUSDGMhFz/8DJUAoCWbL3NtVG1ab54s7D/Eu05p6naJ0hNJGQTjgyZoimvY2yz2hFk4wEZgymIjZu/36GSFOrObBnO4LBEZubMylZ4zrX7/6UaHaox5YTc09wevYKGX0EhxMzZa70fn2oTTuI/uyjvgU05szZS5w5+jzOzKKyy83b/5318l3Ap/MolFRXI4F08MfBNi2mBTRV8ySc0sa038S1QCwT6Zlaad0LB0WbQi0JU4WnEpkUUekeSNfwy0RXN/c0xk8rpptSx7qFssYHH/+I9cEtAhW5XeDsiefocBxLB0PWMIaBqTP/pTiyIXpDjVSY0OXS6e9x+sgLZFZY23qf9z7+Uwb6S0y2R6hk1SbJKhqRmhzHkMCImgEwwjIEuwPche33YPsaoVppgId9eREF0YCRMqHkUqUFlJh0ZGMApElfTScTafR0TO+WJC1iUiFbFEA2uDX8CVdv/S3R7KAinD/5LJfPvoyhj9BOFYVTVbVfvL+AkGIh+jD1VqykcqBTvRc4d/xlJHSp6x2u3fpvrA1+DmxSeiX9d3hDfJy+IO1z9bTIGvB1CHEJdt6kXP0J5e512tm4cXVcquTQmD54REZgRg1HxoYDzYRiTSkMU+LvKUx3cEwGTAZVXMWxyvsf/zfWtj8Ga3BmlotnXuRIcRmvLdBsqk5iOJRfeEiYeIgja4zbp7IFrM2I9Hjp8T/gSP8JZvtHuLfyFm998Kdsxnch22jSCmmnQqhJxgeTrG20oClb7sjIMcAY3fmY4forVOOfkXEXI2McgtYN/B01nbYiFVlWo9SoeEZVTVCHdW0YDwGL1WToYkiP6ZSYBSlx1UrrYiDaGmNu8canP+TmndeJOqJlFzh78kWeO/ebGPoUMnNgJ5ixD1NYn0vIvVBkolOFiNEOlnleeub3cHqU+flZbt15i9ff+iGGFSIjBn5MxGAzR4iRUPpmF7HD0UqYok8nC+juNuv3b7C7e43crmNsDWXVcGOTMMjyJBKxJqDYDPKZBaKZofIdNDbn/2AgptLMzKboqQ5M945qzNDowEbGbKDc5Nr6X/OLd/4Cl3na+TxUC7z4zO9imCOBFHvbYh5Ori+ItXXidDbcKERsgwdZujx29Dd54tI/xMkJQgjc+Oy/8+rV/4sRyxRO8JQoYDOHzae7PyGknQYGgVAgmpPZnMw15c3aBpmBkKeC4RiT5dOIaiRayDozYOcJsgj2FK51GrJZUJeKdxs/McQ6lX83tAgKXiFQYu1nfLTxX3jnoz9jt7rDcCfQded48rEfcLb1dWAGKKZ9Tegwdcc+B2F6IK+dsL89vM2ksgVSIdJRXrzyB6xv3uXW0tuM6m3efO8vabdO8Pz538WSoPmcLKUYgIn9mGKjaqB9gv65F2DrJsOlHcbVFq3CgvcY22j4ZmO4tLpkWQda82yNukj3Ar3+JYrZy2B76Z6ma18FbA5QExuwIZqJylxnjXf5uzf+Izuj67SKHuPdWS6f+02+/eQfYplDOFRg8IDjPbEeDzb7J3/yJ38y/abJThE3g4QAAAeESURBVCfwtIkrZZI7kEatt1k8dpo7d++zub1Gu2dZXv+U0uxyav48BpfQdK0w6ZiovQOuJoZdCrA5tFpIDeMy5WBEaowLKWLRmO5r9cG1GcR5hv48M0dfonX8eSguAkdJopjmZ4xBRIGasd9BrUUZU3KP5foNfvT6v2F99wZ1FfDjPo+f+8d87+v/jBYnqb0lMz2m5Tf7Pg8WvzxI0IMlKyrJdMvEjWlcETFNnwWBPvPZC3z35cgrryufbbyNa6/wi/c/JbORx899lwU5hTUzRK8Y2xgdTYCvnRydpn0wT+FO9ejnx9hc+inEjxHdxopvDsooUFqMo2Hg+8wcfZZ88UXITgKzxGaHlkwOndLE8SJK4cCzQcUmH62+wgef/A23l98h+DGd7DRnj7/E15/8Q9qcx9Km64qHctrBdjAr8EhC7kFeDSG1cWkiTYwbEengdYYzc9/h5a9X/Ojna+jMa6xtXOf1D4aMxks8/9jvc8w9hXE98AlySsw+oqJGEGof6Og5YAEW55hVi9/eJI6WqX1JK+sQyRnXGbHo0+9foXXseWhdAmYJdBDTaoKCmKxsTfK2M4eyyzbXubb0Ku/f+P+4vfQunV5BvdPj0rnf4uUn/4ijxbMYuqAlIvEACQ6j/xM+/JI6cj/l95zi6VVJSSerUMY2l498g9l/VPNXP11i12xSs8ovPvhzVu6v861n/4gLc/8A4/rE5vC2VEcTUXJy1xw9oz2w55Dj3ybTZUZlRRk+Q7Ic1TbDWDAz8zWKM98F+wTEY4ToENtKAIWAxlQ0QBFRRlSsseGv8cGtv+Kd63/F5vga3U5GGOc8cf43eOnJf8Kx4nkc/RR0SETVN3r9q6XQDh7ptT8d85AET4weMYnItZZJBNnm9vpbXL37N/zi5r/H2x1svcBs+zGevPBdnrvyW8xyEaGP0EoF8Gr36UtI0cdmAnw332Zz80dsj69jcmV27hIzc9+B4iXwlyF2mzBeQQKRFEYGgR3uAfe5vf1TXn/rh9xdeY1Wx5NlOaOtjG8/+8+5ePIHnJr5Ho7ZtD3I0OjkGqT1lQn58AOU4JEdChElYFVT9S4LXFj4Ad32UaQ35uPlV1lZXmVnfJtf3tjl0/vv8tjpF3n8/LdYNJcR5kB6jXfjU1iYKUgvcedsl14mDDYXMHlF78jjYF8APZUSZlnSiYEdanbTuktOyQ4r5fv8+Of/D7c+fY25I54jx/vsbO0y4y7wzZe/z+Nn/4B5eQbDLDLxNSe2dP/m7K/QHn7I3COzSHuwQNSQciCNOQ7sUrLEe2uv8N4HP2Jp9ZfU9X1cFul3F5nrnuWJi99nrnOFY7NP0+YEQtYM26csYCxIim6JwWAJY6DdPQksEkMXY4pUr84ukXWUFcbc58bKB1y9+Saf3H2brJ3Cm/GgRkKLM8ef5uXn/zGPzX8b4TiWBYySamgb3CRBd5OjyP6XEXLvb4ieEEJyO2zatadss8s1rn/6Clc/+WtW1q9Shl3AkJmjzHTOcnT+CU4sXubIwhnmZo/RszNktMgpmrRqyg2lHQWOGkvEMI5DrAkM9R53lt/n1r03WVm/xubgDuNqi6LI8LXgtM+xxSd4+vJv8eTp71FwEk+XnH5CuGIKmqZ7Z9iHgf6vIGSMHlXF7os9o4ZUvWVa1B5MqiglssbdzTe4dusnfLb6FqO4xM7oXop+ouCyHp3iCN3ucTqtRXLX4eyxk4g3WNemVcwAhsF4QFltE2XM1s4SKxufsb5xj1p3UiWvGYGUWGnBuM+JhSf42oVvcfHsN5jjCYR5aKrhBPadajrJjWuSanMI4PifSUiIxJiQ5weOd1EHzZbpOgBZwLkdImt8NnybG3de58a9txhUKwzKDSo/QiXD2LRXRxT8eEin1cGZGWpvIVhMpviww3C8Tt5SRAJZluqSRsNAXUUWFhY4feIyZ2af5tzJ5zmaXyEyhzCPJdU71iW0piXwJXshV+J6JgeO/FoI+YWt0Y8xps09ItNtacE7qiG0mwrpOo5Qm5zrQM2YIQHP+vA+d5Y/5u7yh6xtX2e3+ow6rhB0G2sq8jwdQ1OVCVLLXI6YSF2XtIqCujQY+sz2znNk7imOzl/h+MLXWOifZMHMNQm4AsgJ0eFrxTlDZiGqb86tiEQSHGTk0ccr/E8jZAg11qageULIKYkjGAwxgEqFdQGoqWKdQECK5rC3SKTEs8ouN1nfvc728AbD6j7rG8uMRgOCNziXNnEG78kyy0ynS6c1w+zMcRb7F+i1ztKWC+ScwDCfjG9IBaeTMM/IXvrI+wpjzN5+RBTZl/z3PuLcr0u0f6VWk84xDySEIiPBXNk03xwPpE1L4iQPTo1SUU3zK3sgscE3ohhw6cCGBlxok6qICybnW+4l8SdGcX9S3ey9fP+M5dDfr9h+zYTcIRGy2PscTu8djv1Jv6cdEXsF/bCn+oUSw+SAD9v0u48wJkVMB0+I2qfw1T14ef8YfkUiwq+VkA8Z4wMX4qEbzR7zCE0iqzmILu6JaKpAa0oKQ7a3B6XpAjtI0QltpsTcv+NCeCgBH0bTr9p+rYT8/3P7H6QdDZvNMNN9AAAAAElFTkSuQmCC;" vertex="1" parent="1">
          <mxGeometry x="48" y="270" width="82" height="76" as="geometry" />
        </mxCell>
        <mxCell id="iK3zEx9ikkL7i1Esu0Du-5" value="" style="shape=image;verticalLabelPosition=bottom;labelBackgroundColor=default;verticalAlign=top;aspect=fixed;imageAspect=0;image=data:image/png,iVBORw0KGgoAAAANSUhEUgAAAG8AAABdCAYAAACrdzjGAAAQqklEQVR4nO2de3Bc1X3HP+fe1UoryZZkSTbGwpZlMAECnRiPgUDAJsYMpDNJqGGSmJIXDk1KYsKEZtoZk8GZZlKaqVsySRzcZiAvl7gww1AejTHjYDvQEByY8ogdbFl+YBvLkm1ppdXu3j394+5enfvce1f7kIK+M/u45/k753cev/P7/e69QkopmcaUhFZrAqZROqaZN4URi5qhdyDNwcEMqawEUQmS3h/QgI5GnYvm1NNYV9ocCs28g4MZ7n3qOM/uHSY1lgOpMk8Ajq1T5oOtRNIRJu15Jd6DQSrJhSPMFpC/lhKEUr5fuTa6PegJbAtmPeBoj9IWV5xHVbqguy3OXVe18c3lHZHngggjsBwczHDtj3o5fCwFjTpomruBFYWTSWq4Hx1+cV7hQeVUAkp9GQkpg5uXtvH4mi4a6sKzMNR8/dp/H+fwsTGYUQe6AJEf3SJPR+B/9VqNd4b7pSdfn/QJ9ypL+KQP+gTR5dW2MOEhaIsLmBHjmVcG+bvn3gvDDgtFmbevP83Tbw1Bk0640elcp7yuVThHmjO98EgTFO6HQvqoM0w4fouV7/zvTONRvxDQHGPTywP0DqRDU1aUeW8cT5FL5TxSBnWC9PkNShsU5pfGr/xi6UspSw33GnB+Zfj9d+TXIZM0+P3RlE8aN4oKLMm09KlTQC4H6TLvFdJDwhD5MJsgAKZwoKR1TfD88u7671t5vh6nMKbEudIX0njE+4kTcQ1iXnKDZDSTCyLQhqLME0IlUkFOMqs5xkWd9aErK4ZETKBrwrfNZaunTqAV4+MEIRAk4gIni3RNsKt3hAMnxyDmXso1EX4rCHlU8FjDU1mu++BMnri9K3Rl0zCx5rGjHDg6CrFC9yt7ZYRtvHQNixAY01rRkjCWLZxFPRChT6fVY7VCGQb+BJk3PfUmhon13/TMqxWE9VUywjPPdlyZnnETQpCuoCICi1BqiyDOTsMDQXqJyggsfuqeaUwILsVDeERgXhg1VuUQ1lvj139KcvPmPn788mCFKSoTJjD+IxhjfVRAVYIoslTv60/zrV+f5D/3nIZ0jmffHOIXfzjNhhvnsLynsUpURoXTSBkNES3pzg6s/bJ5ZizH93b0s3HnAMmhLCQ0iMdAws59SVYc6OWvL2/lW6tms2hWXVVpk1J6DzqX3tT5Pxwiu0HYUVup86d7TrNhWz/7j45Cg543W+UhgIQOOcnPXhrgybeG+MZ17dx7bTtNJbodREWx1cJE6atZ8VaoGnz/yKpiZ+8IKzYd5LM/PcL+98agOZZX8npAE9AU42zK4P4nj7Nk4wF++dqZ6hLshK0rS+9Di3lSSm+hwApSDyfR5dpC2X6Chxrul+bgYIYvbn2Xa3/Uy469w6ZLRr1jz7CyOq5jGjTH2HdijDWPHmbV5j5ePjTqS0PUsEhtsfGreB/68ca2bPpPc0WelRQ953mt9YVrvzrUcGeaVFaycecpHtzRz+nBjMm0RGHcqdbrgsJX9fRx1FevgYRtbw7x/J+SrL2ijfUrO+lqiXnSFibM2d6gtpgZrIz2JvhACBHMvKLrc6EfQszycGt9cSTTOZ56e4hvP9/PW30jZsc3F0j22iucLgs+JhYBNOrInOThF/t54o2z3Le8g88tbWF2U3QxoOT2WvmK73tedYS354niFZQb295J8ulHDsOoAW1xR/VloCW/H/afSvPNXxwhmcnxwMrOiZdbDC7SKyWwFCD9hnA0RLk14uMXz+Dlexdx07I2SBkwFt5FIJROISshmeXShY08vq6H9dd3hC9/IiiTkB6SeXnXu1COPsEIs8Rkc2a5ArjivATPfGE+v/r8fC6aWw/DWciqTPQRorzcNwpVGybT2ht1HrzlXF75Wg+3XDKDmGYmMHLVPAKVXlfIo4Ig9IZXBvQNZvirnx/h90fGPaluvWwmr96ziO98ci5tCR2SWcipS7mXi57TIQgYMRDAXdd18NrXe7jvunbqdTPdsaEsa7e+y3P7kpVpmA9ZpaI48wIHRmWYGdMFT7x+hisfOsDXnzrOieEsYDoo/f2KDvbcs4gvXNNuMm/UCFfoWA5SBisvmcHuv13Iplvm0tVialwyOclDuwdYsnE//779JOlK+3d4nfMcVYbZXmzMC8xgi3Of88p9m19jo46Rk/zrtpN8aOMBfvDbAYx8Hd1tdfzHreey8ysLWfGBZhgxIO2zH2ZzMJzlwrn1bPnceWxbu4Cr5ies6Kf/OMSV3+9l3a+OcvxsFppipldeteH0dgyxvdjIDDznhTiLlAuWOkA3PYmPnc1w92NHuer7vTy7d9hKd013Iy/c1c2jd3Rxfme9uZQW9sOcua+1NOhs+Pg5vLquh0/9RYuV940TY6z+2WH+cnMfe/pGoCkG+fsEZC00RyWM/RJ1m5VtnOtQUqdBncYrB0e4+eE+Vn+ohQdWdXLxbNNn9I4lrXzykpn8829O8S8v9pM8nYGEzmc/3M79N3TSoyikT40YPLijn3/bNcBYMguNscmgXy+JhtL9NisIXy+BBh2k5L9eOc3Tbw+x7pp27lvezqyEzox6jQ2rOlmzpIVNu07xsQ/OZOX5TVZWCWz+30H+cftJDh0fM5XWrgN5kH9CGVGmrixx5lW2gcEykoAmndGs5LvPnmDLa2dY/9FOvrisFYALO+Js/MRcW5bn30ly//+8x0v7kubS2Kw2uwY2Ss8zaPQ+LXFrrnxjx11mfE7bmsmEvlNp7vzlEa75YS8v7E/a+mBvf5rPbDnKDZsO8tL+pGkyijubLOzlUotVNMAJNwARNCwTm22lS6NeS5kY525cg4TG7n3DfPThPt5+bwyAVCbHxx45zJbdp0xzUYN614B0Wx9qgoLlQ1RaYJnYeIwsjRbVYypKXSHM/TAnGc2avWBIGMnkzL1N81Bg+1qzq8lM4SAhWt2TxunWabMK3wyl8zVh8UmApe6KQEXE9D6lONviZyt1YZzeyIf0AHIiGxCjQghht4P50eEVVpQcJY2rU6TyKc/Mc7WlhP0s8iG9ONRGesSWScviMHUqvz7Lp3DXK9W8UlkmXYNQ1dua15VYOMupxCggJPPUEelPRLkItHeeZ687aw4OtzE3QHFdLXhVW9mjQnUP6hG8YzxDRcCVP2qpaqnYUUHmR0aVJDEJoynDNJaGqrNYGnXpdX4U5K0UFbfnSY8LL/tjEUS40aTwVXkGnjMjxoYb5zCjUYekkbfbTRQeZ0UVo2Y9dyzv4MMLElQPpc/2iMtm+SSyINTHBOuv7+DVe3pYc+UscwamDEe96h5crAP8DLYC0gaMZPnI4mZe+JtuHr3tXOY0T9AXuRhcQlOwIOiHCAJL/reKZ9gL2uP8/NPz2P7lbq4+vwmSOcVupxzSQxHlYJwhYThLd3s9P7n9PF78cjcrFjX55q4cSvdSiHhzpVSWz+rh+kVN7PrKQjavmceC9rjpx2KoMy8CpISkQWNM8A83z2HPPT18fmlr2WkOpqE8xUzwRpPq4s5lbdxy6UzLHpdKZiERw/aUvyCkDBCC25a18sCq2XygM15xmsOjalaF2mFWQue7N83h1XU9rF7aZi6jKbcfi60rMjlIZlm2sInn7urmsTVdk4txEh/XymCE9B6TnlqMWuLi2fVsvb2LZ760gKXdjaZUmslZa4MmIGNIGDaY11LHDz7VxUt3L+TGxbXY1wJQeFSWp2tlMIovm1Z5whkwKXDThc2sWtzMD387wHe2nzSfwAukDUl9THD3jZ3cf8NsOtXbv2qNMil5IrhBlKG2CkEX8NWrZ7H6spmWD2Zc19h+53wWzZpEy2MBtvGvSsHR+ra0A83kmnwW5s4Yb06iTkxOxrlQuhtGaQLL5Jt8Uxiq02251WMVtuO9L+FlOS/h/BzR3X16ypUXE+vP4nueZ/nTM7AssJREYbwB3Ah5VHCeQaZn4ITg0uyVpuwv4cFx1faw+nPGxGykEW5rdpz1JMT16RlYCuKxgnVG6b8SXEjCn/Os17wUcgoODGbY8vrZcfcL56QMM0lLUdw483jVW4i34qS7g5zmSc98HnX4tStEW4SA/afSYHsYU2mzryjzxr2wHA2Pa+w5NMpnHjlUUsXva8Q1qNftW1HB0S1CMUWZpwedP3SRdyN3DEuvEexriFdnRF7qEoLx9yvI8etCOttMUfOA+x0M0qGxl0pa7OWh5lHaEjjjCj4oDhpdbbEKd5dj0RLtzsCizOtqqcs/GkohxqrUoyNU+HofSI/A/P+Cdt0miWHvFKvxeX2gZflQ9INqfpWhXjQIR1usPN4kejdSpdFRhnMCuPor37e6xoLW8A+3KyptXj6vgfmz6803l9iIUzrYIi7suAlK58VUZ7xTgApZn60ThWcS16CZEIrUZV0LGM1x6YIEV8wP7/xUlHlNcY1vr+w0DZrZoOegqIu2tIfZkgXE2cKl8nHGhxWx/cpy5nduOF5lhw1zxvvVqaQZNahPaGz6xNxIEnyo9+cB/NOLp1j/9Akyo4Zy102pGvGI+eqEucl7Uuo68QakUaFuwsCYAYaavgrHoHzXL56X4Me3nsvyhdEe6hqaeQCvH0+x9bWz9A5mzHaqW4ZFEGVtty5gz7sp/ngshf0xDc6KvK4VIoOkpyxc1dPIwra66r2lRcLMuODq7kZWXzazpGeARmJerbD1/85y208OmffguQaGQ5JTJLeio0iagoIuYO83zmdR+1Sw/41jSjggLZmXoK4phvfNGA6hIIrAIQRkJRfMrqe7rbqPMC4HpgTzFrTGmN9al793wQsejHKeJf0us5Kl8xLokW/ErD2mBPNimmBBa4zSNySvwz1W2OXzGiZAXe0wJZgHpr+m92zyOXoEKQ2so4GEGCzumFp7XQFThnmGTZwFt47Jwa3ASarMxJhGZwlPt50MCM28WgulBwYzoINbV+WzVwVKpfbg3OQXuD0RmnmVuKc6LP5wLMUbR0bNZ5B5am28AlzaZnc+AaRz7D0Z/vXWkwmTftkcy0q++uRxjEwur9lxHsSlgy9ey6pTFaZYAjR4+HdT5L1DDkxq5u05mmLl5j527x02D+iuGeUjlUjhjrd0roUBkC+nwXx60trHj5kP3ZlCmFQalrQhOXQ6w66DIzz55hBPvT2MMWbkGRcGqlYlgp5OAqNZLuxqZO0Vray6oJnFHXHq/d6SMklQMeYNjBj87sgoWsHcJgTprGQsK0kZOZJpyeCoweCowbGhLEfOZDg4mOHQ6QyZpGF2aIPmfvSURLHFeTEoLAM94tJ5y0lCp2dWnEXtcea31jF3RoxZCZ22hEaiTqMhJmiICbT8y9azOcmcZp0l86p5L3sFmff8O0lueOiAKWSofZnXJ9qu83sPujA/wmEMjcKAINiS+5zYEeYDDLLS/M0pNIJJpxD2bCmDay9r4TdfWhCeljKgYgccXWCacWKOhvrqItXZZItwxCkjwXcWejFeekQLPF/2oQmIq/ulmtejjqyoiSddZU+nBdkg8LUrqhCBRzw+cX6DolgZzuhi+fzyqmGiJq/RrRjzLOGu8EdgH7XOawvCrTyx/FPyjJZKmM33xMeGp7qT25ybfGBld9Yrx+MLzzOrobxXMeYZOfLWac2jn1zcUcJzIdKFja8SUgYjfq8GqCDKKrCoryI7mcyyY/+IzaHrzxXSkJzTUsdHuqv7btpJdc6bRjRMag3LNIIxzbwpjGnmTWH8PzcRCKRCDUoiAAAAAElFTkSuQmCC;" vertex="1" parent="1">
          <mxGeometry x="33.5" y="370" width="111" height="93" as="geometry" />
        </mxCell>
        <mxCell id="iK3zEx9ikkL7i1Esu0Du-6" value="" style="shape=image;verticalLabelPosition=bottom;labelBackgroundColor=default;verticalAlign=top;aspect=fixed;imageAspect=0;image=data:image/png,iVBORw0KGgoAAAANSUhEUgAAAFsAAABKCAYAAADUvCinAAAIrUlEQVR4nO2dzZIjRxHHf1kf3S1pZnZ219hrFmPzYU5whIADwRPwFrwCvALvwCvwBNzgwIELQQQnHHwGGIcdu8vujr66qzKTg3YxDtxjaXZQzMj6XXRQd6nzr1RWVVZVStzd+TTqBYQWQgB38B4cCBkkUxk+9bbPC6kMGy1CBknb3TP6TkwgiWUBXGkkklIAiSwHZRq7a3rsW4oHsAgeL1PxE8ioZy8/RMOE0J1hQMTAK0jAScDFtT33TcT5dFleUpniBJTAdMs2x7+TbkLfQz9AaKD0ASrEnOiLch5Odnj028eYD77kaV0ymzTMEiDNVm2OevavLuAXv/6A3/7lQ5Y10fdr2hho25Z1VZ6QdzbgNhFCuPT9H3/7Ie+8ccK7r8ObW7r2qNg/+vlf+OVv3+Ovzyrp9DVKNawMxJzQokyj7GzAbeKzPHu1fsa33v0i3/3Ga/zsh29v1eao2PEnvwHAzF6MRl5cJoct8rY0bsQYSSnx/Kff3uqeS/vRz/p2P88UVdSdarb1PaNi/4/QIh979xFIAQOM/4fY8LHgx1CCy+Ud6KcxHkYu8+Kj4ODbe/RLPlvsz7uoo8TNyw6h9XKxj0KPEl+GkR0k2j7w/Lfwx44SVcXMdhqxjXp20oyK4CKQAgQBMXBDvCJDvJaHvqlYbCAKGKAVcSMmcFdUB0gdDp+RQfkko2LfvdMjIrjA5hMDmBMNcKee6isZc9OZ2Bq1zahM5MUwz4wYMyl19EPduc1RsX/wva+A6SavZYp4IJLAG4TEXA4763fXlbUWagiQG6oJta9EaZi2HWWH8fVLRsXupMcYcO0JrgSJEDtMHKVytvtn3SoMJ8aIRcezkoGcjKiFhGJe/uvqL27V5njMtkwVwYLgAWoKGEKxgWphs7hwwKzrDJeKWsWHSopO12SCBkoxwhUScaOK1WpYSNSYsQC4EqUwC0oKhfWBL4udcgbquBXcK5ig1ekJFIdOdh8gjIpdfAVhisaEqtNa4UELX7834607M9Zy2MO/SWgpfU/mBFLLh4sVf/joCf8cKt5NsP4aO0jiACkBEWql08LbZy3ff/gFvvlguhmVHDAaCqUPtM0MFeG9pzOe/OsR7z9foCnRXqdnp3CKlR7ynLueedYk/ubKW5MplTUxHPaCb3TBmxMESLbkfDLlo3WC2UOaeoHuNMLesHvq6siVOYq9R45i75Gj2HvkKPYeOYq9R45i75Hx6XoYcMn4AKVLnK8X3PPE782437c8XB/2rKZ2ifmyMjlNzHXK+wuYNUI7v2AdGpDdU8yjYrfiWACPQiWyGIzVh88YfvdHQl3yUXvYe/3OVivKsGY67ajilNzwj4s5JU2oCU52n62Pi62rFZ6NEDpik0ln55R6wvuWKT1IXbyKLTeex/k1rKmkWhj6FU0DmqfktiNYAK7Rs2PqUAm4K0O/2qxa4CwGxUi0w/1XseXmo04mECQzcWjKJqUqC0d1oGy3cfUTjIptzSlulWCVOiyIIiQJeBUmKbMMV/gd3SK6fgESERFybqm14mqoFeImY7Jzm6N39IMi4uQsBIe23SyHXTzvqRZpmL+KLTeeockYiWWtRDeKKW0bEQ90OUHZPRE1HkZECDjBoVfHCzxfKu/96RF9jRTZdr/97UT8MbHtWKx6cptoW+Hdt9/grGsRuUrO7xKxG14s2ceIiSBxxgr4YB6ZrwIcuGfHvmVyMmW+qMSo3D0RJg87zmpF+jXrdI1hpFDRFAkEUkpIueBEWqSuIczgsEM2liILfQSt4GXGUIzCij4MZG/gCqvrxxnkHrn6Evmh7wP8PyyxHj17jxzF3iNHsffIMWbvkaNn75HxfLY3YAMhGuYKKWP9ire/kFislhiTfT7n3hn8gpQaRCKBwvlpRzAFz6gMXGtupOsytVTMlNpXcpe4czLjnXcSKU8gHHaKFb6MiFBrpdZKjjDtIlkMUWewa8yNDGWOu9OEiIVM8EAQpcuV3A1Yf9gRSGwBGFGUJm1y1zoIbgnckXyNR/NKHUghEWMmx0AArA706wucNdN456p23A7qGoKRkiFRMITgEbEEnhi837nJS8JIB+YvzpAUkAZJmW5yRjttqeXpK9ly02mbc0wM80IpFXffbB1WBY3E7joPnWrAvGKiuBgmoJp4Oi/ICuD06pbcAjIBQqRWRw3aJnA6aWkbMO2vks6+bDP85vBOaBxJYNF5dlH409+ecjF3irWvYsuNp/oTUuwwc4JV7t+d8rW3zrl7KqALJM12bnM8jKQJVQHpMSm4N6yrcDF3Hv2r4t3uMet2kZGQ8MGhOpMuoXTErHi42lHQ8Q5S56hAsGbTMahxJ2fWdYVPZ1APe98IKnjTQ4oEpiz7Jblb4Oakeo8Sd3e2wx6/3TCOYu+Ro9h75Cj2HjmKvUeOYu+Ro9h7ZHyTThNZDQO1GrGdUskshjVfffcei+XATA68YmUPIWZEnCjKpJvR9oKkKeRASgVVx3bYzDo+qSlGDi8ErQNZCg+niQfTM8yMqoe9LFbyRmg3pdaBKEpOoLGnusPcCCkS0vYnfUfFXg+VrusIGMN6hWihbRKzFDFT1gdelUFC2YgtTkJxV0Q35YpUlWnzOgC2QxW0S1KsDSEAIROmEXGnUBlMMatYOGzPzmtFRBARIhmRj4+Pe3BqzlgtaN2+OsWo2K/PIo8v5jxfV0J3SmwnDNagrkg7IV1hWeg2kYJg7uBsDgWY4y44IBIpy0dMmsj5bPtf+OiV3/nyPf78956/lyW9zrFqxLoRuE0tsRx2vRHN4T/VzUQCim+KAAMhJB6ENV967T5ffbD9CYzRKsOPgX8+6fng8TMWChWhmiIobY4ceG0Xhgj6Ih6HvPFJfVnkNgn3rPLG+R3evH/Cm1tG1PEy/Oo4QgE08p+DDYkCVOqBb2VIm6q2G8NfzEbMK+pGCAGTRALE69Z/MDEu9pFr5ziD3CNHsffIUew98m+37iKWkK/ZSQAAAABJRU5ErkJggg==;" vertex="1" parent="1">
          <mxGeometry x="44.5" y="500" width="91" height="74" as="geometry" />
        </mxCell>
        <mxCell id="iK3zEx9ikkL7i1Esu0Du-9" value="" style="shape=image;verticalLabelPosition=bottom;labelBackgroundColor=default;verticalAlign=top;aspect=fixed;imageAspect=0;image=data:image/png,iVBORw0KGgoAAAANSUhEUgAAAGQAAABhCAYAAAAgLwTnAAAUpklEQVR4nO2dz49lSXbXP+dExL3vvfxRP7qrZrqbmTGN7MHY1uAFeGEhsfAYr9ghhMYbhCXW/AMgIbFhY7Fni0AgwcpICGEJCbNjRoCRbfD0MDCu6eruqsqszHzv3hsR57CIm1ndbSazpt9kv9ej/EpP+fPeF/d+b5w48T0/nri7c4e9ge56AHf4JO4I2TPcEbJnuCNkz3BHyJ7hjpA9wx0he4Y7QvYM8bMcVAGthihUV/7j9/4Bv/fePyTnJanbULfcaqqDiIAH3AKgiARqMWqtsBy3Or/IDX+vggZQdRwoBcwgBuj7xKOH3+Q3f+5fspADUPAAwlPIX2KdYLXF2D4TIbcNM3B3RAqSCiJQHUIPXQIbtjv/TdrEpjjBQRUEJYVA6AKlFM7PMm/c+wizNegBhYFCZUEEg7Dd0PaTkBCEWh1X0JmMYWpPdgLS1G11frlhiiyWIypKLUqeHCsR6SOCIlIRPSWkDA4WKm0eLSAagRPg4Wce214SUqsjAqICRIJ2LPqAW8RLwMOHW51fblg5zQGaSQ4hUmthHCshOl0XyMMjpnxML1DjAQWgABlkebzV2PaSkBgSGoSpToybjGgmpg4sMI2FuNpu2MXs+r8XwyrEYCwWDq6M40ipEAX6dJ8QTsAP6XhOoAcOQF6iJLa5rXtJCLrApSIyoQGCQJ8mVKFPME7bDdv9epN17/CIzWZNLpVcMiFASEBp608aE+XiOzB9SDh8iloHwxFmHyD8RVi885nHtpeEjNMZDvQRjvqOkp3NM4Pa0aUDuu5kq/PLDTbrgz8JrA6PSWlDzgM5Q0qQYsJqoOZ/w/r828TTBeHiBPMlYYxcpBd08i0OFv/kM49tLwlJS5gGqBWmfMiT7w789/+y5qM/2dDHAWQ7v/omL2vxtRN+6RuJd3/uGI0jw+gIIHSUDA/tKxwOyvLkDBnWIAHyGl9k+sWXthrbrRBSvQOrOBWR5ildQh1Mr3cO81qIqdAFxTYj6/MNv/ev5l3sIJjdbkwtLhN/+R9npvIcohJDRS0ycYF0PSYDOirDPVjWhJfAdDzST1BD2cr1vRVCgmZcHKS5qpcGIsxDHUu99niNoAEQQ9SIoiDgpc4bxesX5S8ybsdkqSPeTINXKPZJu92F6234VI16yVlxQBCJqFeMDiffyrD3AbdCiBlt05RhGqFkUG9PtfvNb1rjvEw4aK1MI2AySx4/vbMDbokQdXBTyqQMZ5VxcNyb6TKHcMMSYLLAGBAguTFcVDxfbuh+emcH3BIhIoAEpEZKdqaxtnUkAgJ2g8hc8vx3AbEm7lELJqAUrl+Bvti4nTVEQMQQrVze/q5X+gWIGrVeb3ZWUkHbhpASebm0edrBPM9uZdj7gFshxIEglea8OyFC1wvLldAlQfubbFZpOpKAD5GXB07sQOqEcedl/dgQB6uQQsSnSkCZxsrRg4CsKqS24FOFqKDBKf7qNovBKM397aJAV5r+ZIBm5Abp4ybcnBtory7kCrMZdUWnR9jqQw6fvYS+Q6LQryemeEE39luNbSc7dS9QRvApUEUQLRhOdQGJaBVymHCFPBnjWhBTVI1aZ1Fph7jQ77MJR8R4jGvGUUI8ZOxAuhPSFufeCSF5o4wXMF44Ys17Kg7mTnWnE6VEcIUwZDYvDak9KU6YJZDdElLT1+gOvknS+0zxDPNj+pJQfUE8/tWtzr0TQsSEMlbGNVhpkTmXtoE0L5hUamqEyJgpE81fFoM98LGs+3lWh3+HcPTnWHanFFsRypKQn8Lqja3OvRNCYmrSiAiE0DywkMAEzAPkivUtYigBNj2EaM3J2oN9yBBOqfENkq8YWFBViRGQd6iS90/LugkmbdmsQIqwOBD6A0WCtNi5R2qcQEE2C8Z7I5oMK+AYwnaL+raQMFJpO13D25zVDAYV/QIS4oFitd18AU1CWjjEgpjTSSK3ZBNUEyEZ1WvzfSSya7MVfEUoCjqQyqKp2ekl1AcQt8us2kleVog9GmKbAUGQQNNTtJmp7JlpFiVd2qua0uSw7RIcfhKoZY2VF2BPSbZmwQZ4H8sfMUzbORw7mSHB1pArCUGKQykEgSmDaiD14EOllwWSD7hYZ778iwM//F+w6ntsuP6iVQMizUFwd1QVlYiZkKdK1y3YDGeEWOkXQjFvgqgCCOHtynrzJu9IYT2e0C0CZolpzBzfc94sE/zg71I0EV2hLPDFBbo54+DR34PH3/rM92YvI4bjUHEDDwNh+YKv/fmRX1vAdA6rhWI6XXu8IIj6nN/VvDjVTC2Qs7N+oUylsljCwXGHSKXiqEbchCE7X3lXcTmdM08EkQCuDMPE2L9HLhHXRDSn5CU5bgj1jFK/+9OXKBdm78oUso+sHsHXH7XIo+oLxhuUk8uduM/yVzvOW0h4hOdPNlSDg0O4/7Cg3bwjl4K70E3H0D1nLC3jyswwM1JURIwgZyARcQVzxEfE1ygbAhdbXft+EhIBbzF1qwISCCFgVshDJcTr1xGrIOq41yuTJSRqdaacyUWoVilAIRCs4GIthmOQuudMGQiQBKbRwEdCclQrPY/p0RZGsErwBVgg0BPkwVbXvpeE1Aq1gLsSwwrRhFOpKJqMeJN0Elswy/GZEEcwCoar0QWlSrv44BOBlh2p2vZGpbbvu9RhVRjrSAiFGJxcaFPYFK9NgGtfBWye1ltgLwlRUbIbYEgYEdlQrM6qMdTXsAoyv1xA3BCZmv1y0JKwOiIFJHeoFBBHHdSFKgEhkEuklEJA6JOiUpkquKwxHFEHJtAVrmMzeXKx1S5pLwkRTcSYMTOq5dmOAwbZaJrKNWgLudLmSEUICIp5pZrhJJCKE5GwAKktZ1earTQ/A8+Uqm3tCLQZWuaQAIAK0lao5rarAIpvuZPYS0KmPDbPaA59BImksMQtUgao3cvrTyCKzVkv7oqq4A4miomRw3mzLKlg3dAcCNp2s9YmdsYA88YHcZimtjYt+0NqPcYLmFoT4+oCs4zXgtejra59LwkRC/SrR5yvn0J1HsaON/RXuX/0dUoaeHn6xzyd/gODQQyPMd2QywWRjtQNDDS3WauCOG6l2foCsSqxRrJP1Al8hLASLLe4f0o9Zhn71DKlob2yrwlhiQSdE+4yTsTZICEj4Xyra99LQlwqY3kfc3jr3lf4Cw9+i7e7v87B4WNK+JCTkx/w/Zdv8d7zf8tp+QBNTROTMuAGKQhGwi2CGKpGEEE1UqKClrZe6GVpggJNylHfrSyzl4Qs/TE5P6OrPY+7v8Y7B7/BA32HwES2wNH9v0oXF5wPT3h58rtgEKOQ50qNixfONE7UsW0gNcyR+DpiNVKrNknGwbwR0uo+YF4hdoa9JKTEDxCBg/QWby5/mYfLx4RyhlYQ3mKwDzhKX+Xe6l36s9+llCVWH1DtCSkCE9QNDJu2DKT5Kq2C1YK30iiqNWfBzFpx0OwM1Lq7WbKXhOjs1otI06G0Q61Qq1FM0NQhePOehE891EKUDqkFqU5QJUVHtDYpxRQLgEDqwLUJ+vOh2I6V5L2swg3lTaiwmZ7yYvMHXAynwJdB7zPyjNXqHTb2jLPhB4wVatgg3RM0NNnESqWUipkRE3SryPIosjyC5X24d7/j6FjpD1qwTObiTvc2W3aJvZwho3wEEbKd8Wz69zwdfp5u8Zh++QaJwpOz/8r/Pv0XfLj5b8xLAMVBXVEMje1Gm8DiIHH8IBK7TJm9r+BQTTARNDjG7CJfJpvs8Nr3khBF6MNjij/j6ekf8D/qb/Oi/yPuHf4CJY48+eA7/HD855znNX18m1xPyGVD9BUhXVBqYaqzFiaZKobISFM6nC41sVDsYyKkN9nE/5QJ/Hyxo5i6E2Mr7kxdRIBpKkgEVWEyh3JK3y/JOfPe6Xf5v/GfEk8OEVZsynuEEFDtcX+OVyUw7w3kPhpPsWqoBEo2UlBKnmcNgVwroFd1K1fpV/PPvkNGdhPCNa5iFSJCiLQkgdBi5n0HVgdqHRCBfgEhnuP1nJzD7DU1uYNPFQQ1q7OXS+NrYTeJcqa42WwqHBFFRJryVFsFrKAEVZBCqXOdOhC0YrNOKMKVxNLKqHdxNT9Z7IiQgGqTxd1rU1Rnb9MdVBJuAfeIxkLUAaypwDEcoEnn/22elHnBzbHic3Dqi9tGckcmy+Y9hs8/XxIhxNAhPjKVzDjb/b6HPgasJOqojH46h2UBpAWxXFGNqCojW/be2CF2M0OuNl+zxVcIQVFN1NohYeTwGFQCOVemDF4rQSqi3pRY5joUd4J6K3+4SjH94tqunRCi2hZvu4x5q7abPznr9QhFOFjdI6VEruc4G7oO8MQ0GsvwNjkPlDogWki9IVoohRbR+wJjN2lAc7LAxz0tUIZN5uSF8fSPI9N0wjTB4T1492eXvPX2fU5Pz/jee+c8e/KUOkcQHz6CL7+94OGbS2KaEB33INn0s2MnhAylUGtH0gkXGDwRZGDph3z7X5/z7X+nqEHwDg4m/ubf3/DgHVguRv7zP4P/8/uVJAtKHTh4BH/7H414giwj8U9lDuqnIozKFDJfP/p1HvuvEOScLBe4vklMwun57/OHF7/zscyVz9dB2E32++UGbHaI3H12gQufh5T0MP4ybx9+i59Z/BrLrlJ0oPh90JHn/Xf4w4vfuf1B/AjsjJDL3bEoaBBUwMW5oclDQytdf/Xjx57i9v31atRUf4DoM/qusOoTmUB2MAZS2i6valvsdIYo7dbpfANVIym8Xvu+T5sS91nweB1l0C9Qm6AaZYSxOoWCporU67Mibxu7IWT+6g5SYRorcg5yMbUmAT8GPouJjxzSxQckfYh6QDyR5BAkEtgu0W1b7GYfMjcRkDk7cbgojBNwnrk4u/33H8oJuZ5Q5ZSkEZE1Jo5zSq6ntz+Aa7CbfcilqBhaek4t7RUmhfrjRyM+PkteZw0J/gi4j8qyiZOhA1ni4pgf/tjv/5PEbuIhsygYY0RMqSJtQZUlfZeA9Y2n+P+tIa8bWdIOJFaKn+NWyD7gMQEbqm/XgnZb3E6durUazZbsDHirD3R1RCGXnsUbI8vjjsyIB1rfws2IHmSY3eBPw92v3OLW13f22Ob4u8+/L6UlbNdaUQlsziIhLvA8EUJhs1kTyn2iOkxLYogt52p4gLxGSD3lB1iaOPzgDJZrhAX9aU9dVIJtV1B0OzMkgKK4zEnP88PrLpiBhkKczdbcLxlqxbTMT/k2ld4QQ4/KhlxhHAy3CdGKY4QIQTZMY5kFSaW6U2sG6Qjh5mn2TP8nF4uvEY6PkVUGS+i0ZBONrnvKcpuxb3Hsj8THn9ardq/iBI+IV3x+DGPrAourUC9nxU8goO1zoN2qMVYnTxP2sX3PcjmQcxNYVOJchlBxz4R48xTRg29ycP9vsVy+iR+8T61HxOEhgR8S7v3SVmO/pRZ/r26uKIi32QIRt1azYdS5CcCIe4dVUGojaUtIqMTeaE0u5CrR+rKaKka5aqYsIq+qesVvbEMOUOIDwuI3YPEW1n1E8QNitySUC+j2MNnaabtufE7PNPBqjOsKU4GwROtAttBKKkLAq6NjBNu+yrZfFmKnmIEQUY0tGc4dEUdJ9ItmFtvvWsDMXD4WGvjRmPx7LctdYKCjSGQRAVtReU7Ywmjdkpf1ydQNMyNPzsX5iAEeRshOKAPWgcuImZOqsbloKf7bIHa1teYSQcTAM+4ya2ZOFxKpa50hLglp/ye43TxFQkhEWYFD5PiVlY2Cs9hu7Fsd/SNQmVuFByWEiltLZqYKuToEa+n8uZWRFa2tx2KFUlpGyDYoV4nUjnt55bHNVTyipY1yTqwWkTlkLLxOO/3qI8XO6OKC4LUdEy6gHlPRrW7qrfVc1DkkGyIIrZVqCELHiCwingsxdpAyRRJWCqE4aTsHC/ikmvwq5nJZjavUOlJtBFoouc0ew12Q1yBE9C3we2CJKKk1WkNp/e6WbNOg6VYI6S7jD1p48GUB2mbrcjMXraekwvn6gsPVm2AnpOiMHy7oFsbKjojxJRdlQjvwzZfo/SO8vAU8ofNDYnfOenzElE/oNKMyMk6H+OocLXplMfWytg2aN1XhkB7zjMQvkaeBOhb67s8w8oxs6cZ00n48p/bM4c4MHnEO8QgHjLAFJTtKcqikBIsegjgeoOughICHgZFnc5Zhe7ItfIQvKzacIKkt+S3tsyLRcOlIcaJafC0vyVTI/pIpvE+3KGgacVVyeY6lZ7d78TfgcyXklavZEhW61MoDqhVqgmwj2oOvWuNLrwdIWlMlYlYZpw4Pa6qeUyPgzwkHMBWjFkHnqr+b0KdvMJYHnFyM9HECRsgvGfLAUHbbuuPWCfn4h6dchUW1XDVKFslXAmPshLffhfJXEpSA1Uj34JDVfeNiMwLOn/2FJW/c20BsrTgW96FbOmOGWs9R4ca9zNP1f2I9fZfvP/sqUS8wHxC7R6ZSeP+W7sTrYWczZBppNRrxcsV1VvcW/OJfeoNv/MpAChPL3sgi1EVmErj39oZf/xs9KX8VjxPT2DOVgTfeGZjqmqkEYlcZN9ePI3WQ60teDH+EyzlYxbxv44sDu8x/3wkhoRfqZCiKUHFzpgKkkeNHKyysyeNEmQtrpgybCSRPLLuJujhDFNIKPMPpOYxjy3TvCoQbckprgcrFVeqpK7i35DrxVxHMXeBzIeTTn/kk4q1BjCilTpi1TgqbcSKlp/TpiDK1UGpIkPSI1fERXtZ4PmEzq8kpQuyg5kS/ULpuJCZY36TeuxBiU56bGD3XX18G+ndYRHUrKX43pc6MY8XMEWnqb4iwWibC3Gfx5OIMjcLx4X36mBjGMzbTE6Z6ggv03X3wQK7gCDV3WA3kDOevUZUcPF15YyULJQds3qHv+tPlb0ft1U8mPH/6GrXtoTDPzA0XKHnuVWiwCu2ol7l9kk5/6dYLFAHKCd1lIWdxQndx9T56eZJr4HG6qpYK6nDZ7sl2Wz0FX+Qk2J9S3BGyZxD/vHMl73At7mbInuGOkD3DHSF7hjtC9gx3hOwZ7gjZM9wRsme4I2TPcEfInuGOkD3DHSF7hjtC9gz/D1abrTCB2qojAAAAAElFTkSuQmCC;" vertex="1" parent="1">
          <mxGeometry x="59.07" y="600" width="61.86" height="60" as="geometry" />
        </mxCell>
        <mxCell id="iK3zEx9ikkL7i1Esu0Du-10" value="" style="shape=image;verticalLabelPosition=bottom;labelBackgroundColor=default;verticalAlign=top;aspect=fixed;imageAspect=0;image=data:image/png,iVBORw0KGgoAAAANSUhEUgAAAFoAAABUCAYAAAACoiByAAAaQUlEQVR4nO2c+Xddx5HfP9Xd9y3YuEkCSXGVQJGUKGpkWZa1UNTqw/GZxJ6ZTJyx7CiK1znJOfkX/CckZ3Li8UiWt5HsmTg/xLGteNFI1EKTtmRL4k5RJEUSFHcCxPbeu91d+aHvAx5AgCtIwRkVDwE84L3b1d9bt7rqW9UtqqrMAGkqIZO8mupdf0xiPmwFmiK0wieMgTr1u/6YZMYAnaQF3Cig6TcRUFVQRYEARAUlosWndPTz8VorfVHiPmwFxkTRqHgBEKyPIJFgFDGCEwFismcVggpIE2DBIlhiugMGZpoNzRygVdAoRAtBcsRGnBqMcYygDDQCkUjZWqrW4iSkjxFRVQQDIqhI+nmGicyUxRCFGCNKQCUgpkRfrvxh/1HePHiC4yOePFg6S5abr6tyz4qFrJzTjsVDCICAdUQM9sOeyyQyY4BWlBhrEDzGVNk30OCHv9vDK+8d51QjElyZSIks5LTHEVZeV+Zf39XDA7cspksCRiOIQ8VglBm3Zs4c14EmcLIy+87U+LuX/sDGQwPEyhxcG1gNGEBshsey7UyNYy9vpxYNn751Ee14RhdCmXmuY8ZoJIBIxpno+N87D7GpdwCtdlESiwSLjRYbwYglSIW8OodeX+Gnb+5jz4lBkJnoMMZkxgANYDDsPX6GV3Z/QJBOnGRoCuZQgSiGCBgiNgascxw669my7xi1IthLnnBGeMNxMoOAFiJwrG+Is7WISIaooALNsK41VjYx4rDU1bCz9wT9PiaXEdO1ZprMKKA90DfYwEcDYlAFUUUK3EQlhYEIqMFgCAL99ToDtQaKSe+ZgTKjFkMBnAVj4ujrcU5AmukJKWZWQBWLwYnBIDPKdFplRqnlgHldZRweE1MEoRP4jVHgRfGaYzXS3dHGrEqGoqh85KMvIAmgJXNns2R2lRCHyE0gioyCLdFi1BGx5EaIVujKInfdvIBOayF6VGYm1zFzgFYgKjfN7uDP1i6jyw6RhzoRCyhGlSxCFhSjAYkNssYQaxa08/Fl1+FIvjyl3zPPT88YoBUF36Dic9bfsohP376cebGG1EYgGiKOhhVyCyZ62kbOsnYO/OUnV7GgrQzRk0KUmQcyzJgUPLmNGAPECK7E6QC/eGcfv37nMIcHoW4zvIm46Jktyl2Lu/g3n+hh5XWzcJpDVFQsGDsjoZ4hQDPKMysRS8QgeCx/6D3G8z95kWN9A6gzGN9g3R1r+LefWsdcZ0B9ATKIsczU4sCMCe8ExagniBJUMEFwDhZWoDseJQ4cx7oy5J5l9mbmOgX1ybXbNA07WgL4COjziqDNpQ81JsHlFePBKWQhEhViFFQNIkKKSaQla5yZMoOAlpR2Fz9rkZw4EVwUbFSMRCBiBKSZLo6j+WfM2n6OzDDNCv/a+uTr6Bdaq4Pnk5lo1zMM6CuRmZkRNmUGuY6pRRAYFxxN1Yow8aeZI/8fWfTMlo+AvkbyEdDXSD4C+hrJR0BfI/kXAPTMCPmmBWid8MNoRDsFX6Xj3zXNkpoh07fzXT8SVcdaIjX9brxO06fftMTRAUUimChEieSiZJIaDyPwzrGT7Dp6mhs7O/jY0vm024n3d/qIIE09T4g6VCEa8AKH+wbZ9f4R2spl7li2gLkVRx4jUQwlBBMDYhTM1SkcXDbQrdAYTQmF2khEMaIYNTREeHn3If7h9V3sPhvoLilfvOcsn7lrFaXR0uv0sm2iUvR/KBYlYthzapBnXn6D3x88RrlkWbdqCZ+/Zy03tVUI0ROtwdiiqUFBNNm5mOnzrJd9pXHQxIgSyQlIjJSCoS7Cz/cc4W83bmfPWcFVr+eIVvj1/mMcH663fHia3YcKMRhqEgh4vI+8deAYvz88hC91M2Tn8vMdfTz9yi4ODY5QsoojR1FyMXiR1LQzzbXHK79lClGEhkRMBBcstWj42c6DPPPaVnpDCdrasNrAaINMdEKyPC0qjNFOsTACTU7EilKulMhKZaxmlGM71nXz+oFBvvXa2xwYqiOSJTq2MJhopr/198qvJhBFMSpkWEac4f/sOsCzr23nRN1Qdg5vDEOxwdJK5C/WLGFBWzYNqo9TYezmmeS6SmKxCM5E7l7ezX0rr8fbIYadErJIw1pe3Xeab720jb39DcgyMiJOI4JBP2ygI4yakBb/HEoZQ80YfrJ7P09vfodjvg3sHCQ6TD7A9dVBvvjgGh5aeRNmXDQwvY+oGEUkkKkgYlCJLG2zfPmelWy4aR5ZfhYNZymFBtg5vPz+CP/1pbfY3j8ExmAJSNQJDm10wpcdLF0S0F4jXj14Rb3iYyREj1GlYQz/d+s+nnt9N6dCJ5mpQlTqYZgbqzX+8/q1/OktizGqzQ0SV0kEpFmgtYg4DMKy9gpffmANj/XMpdw4ixGDkuGzdjYfGeLvN25jZ/8giBCiJ9eQ9slETySkUDDqZS8plwS0UYOLQrSRaHLQiDGOvmj4p7d38+3N2zlZL9OuHdioxNjPorYGX3rgTjbctJhMlYbGCTY83TmTJFpVpCh1WcAQNNLdXubJB9by+MobwQ8StU6FiLMV3jg0yNMvvcvOMwHnLE5qiNRRE2ko1Ej7ly5XLmmWomm0KDlIA2eEvgD/8+13+d6W3RzVTqLrAkDDMAvLDb58/+186uZFuKApKpHUK3cpcmWF+vTZqErIGyyrOp68bw2PrryezPfjo0eMEFyV1w81+NbL77K7bxgrNlUi1RCKQBETwOhlRaOXNGMV8CbFqlZL9DeEf/r9Hn745j76Qxdl7QRgOPRzQ1udrz/yMTasWExJlZp4clFMECReRDlqmrsgnBgyKxhylnaU+I/33c7Dq7rRMIIPEWMiWjb8treP//bLt/jd0UEiFSQayihlUaxeI9ehEhEC1pQ5o45/fOtdfvzGfs7GdpxpA1WkMcDSaoMvrbuNR5fPx0XIUUQMWbQghnhZ3uJy+zWanym6U8WgwXNje5kn163ls7cvpCMMgw+UCIhzvHm0xt9t3MGWo/0Ea3DkuKIF/nKTq0mnPMZVgMbEB6SML+CscNIHfvT7vfzorf30STsl04a3kSHpZ361xtfuv4M/7VlMFtK+QRVDyRtcEIKRYi/hVBIAz6jpqCSfJaH4W2S0YXTUwka3eY6fxAQRMaApKWlEz9JqxlN338KGld2UQw7BkEXBlrrYdjry7Mtbeft4H4iDYhH3zb2Nl2jdUwIdFGJQokJdI14VwXK07vnua+/w4y0HGAmzEVumLjk+H2RJpc5XHl7DY6tuxEbACFYgExAniBMc4KawiuQuAqq+YElAsxEalVPUq8fS/9JJQjYM4kEiMQR87omao5qPuZwJQ4gYRCwiFmcsJWOxUeluc/z1/at4/Na5WN+Hh+J9ZXacbPCtF7fzxvEBgpTQEPDqiaoQU392vCB5lcR+4xvf+MY4hAsDIijRBrzJUyencZxoRJ7bvJ2f7zzEgO3ESYVMBY1DLKrmfO3+tXxqxSJsBC8KkoCW5sRTMDAVzIXVOpCMhgxwoG8zr+/9MdtOvMhgZT+1tiPUK8eo2WPY9mE6O7uouC4kZBghLVai5+8oLcY3kpTJo6e9ZLl5/nUM5zX2n+wjqMNKauI5MZTzbu9p5s3uYPGc9uReClNuSMqKjcgFHcrkvXcxWbPPGkgMZFLmeA4/2LSDn23vZbDURrAlMg/ZSJ3uao2nHrmNDTcvQnzAO8UgWLUXuRMt3WHVgIqlPx7lV29/l9d2Ps+JoX1QbhBt2jDk1BFqUJW53LrgIT77ia9xy7z7IM/AeNQoIm5qoCeI14howIjlUD3w3ObtvPDOB4y42TgriAZCgJs7la8/tIoHl1wHmmLr5OAySpjR7R9TyXiLbk67iC4MQmZKnBjJ+f5vtvLTHR9Ql9mIqaAakEY/i9sCX3r4T/hUz0IcKbqIorggaWOluZgJNzfYR86E9/nJ7/6Wn731Tc7ofijnGBtTWGUUTMS6QM4gR07vpfeD/Sy8bhHzuhYRvEuP/XnHHM8WGgWDIuLpyhzLuucxkNfZf7wPg6UsOdFaTtc9739wknmzOlg4pwMTU6pvESQWQMu51z8/0AUBbsTSO5zz7Cvv8MLu4wyVujC2lECsj7C4zfPU+tt4ZMVCnEIDRVCcWoxY1EhL69YkU1Yd+7uAlwF+9fbTvPDO/2AkO4PNHEbA4hDNEM2g2BBkrEVd4MTZw5w4c5xF83uY096NUZuuOeWwMh7vFh8bY6SaOXoWzKMUcw4fPc2QOoK1YAwnh+q8d/wEc2e1s2RuF07TnVIxE+Z57uCTPtgGxYlyeLjGMxvf4WfvnWI468KYjIaJNOIwS8qRL62/g0dWLKIUPKHwW5laXBS8SU/F6KRG9/8pzThmVLliEdzxwSY27vhf1OxZjHNIdFgV0EjUiBb/I0pQRcRi2zy7Tr7OSzt+SC0eQ+z5E4pzqAqTbrbiiMYgBJZUHF/8RA9/8fHlVK0hj46IQ6ptvDsYeObVnbx28DTRFMUFWrPdyQefIuoQDg01+M7Lb/Piu6fwrhMrBhcUk9fp7mzw5COreKxnAWVN+/ucCGUxGGsQZ8hEaLYsFttiW5QYC8U07XGjoWd46+A/88HIPsSBIUckT+ASoMhGBZ9e45NvNUJ0A2w98BIHT+6ecqKtMro4NyEwFmMMmVgycYAyq2T487uW85d3LmBWGCL6CGqwro19A4bvvLqD1w8eJ4jBqk4gys5lniYFuq8Ref43O/nnd0+QlzswplhVQ4OecoOv3HsL969YmDjfkM7VkNYLy/nTixQVmALoBNrAyAmOnNqLmhrWKiJFqCcTmbSx60ajqAhYpX/kBL0n95Ni8Knl/LdBihZgS1RhlhP+6uPL+auPLeQGM4zxOaqCzRz7T4/w7Evb+F1vH3lzxR/XkDleJgCd3tTbN8TmA2c562YTjAVNzeElZ/nM3Sv59Ir5VHQoxZPS3PN6sdF7k+xPQ4uJqDYYHDnD2YHjKHnhu8+fhSkQMQQR1EEudc4MnUAvAPRFiaaylvo688wIn73rJu5b0Y0NoegD9MRSG++edby49RAjMbZYljCZmY0DenRRCJHo0/YGNFmXomBAbAkh9SsjipomaBefmqpCjFocaFLwxjHgfR1jkh5xdKvxJNctNgVpsco3F9Xg/fgn6wJgTmWBIhQ7cCVZsHOUKhUQChchBDEgSmjktG5Smmr0CRad3jx/djtrF3TQkQ/gFBSDFajngRf+8B6bDw8gtg0rxRIYLRcPtI5OBlL3PljKpXbKpfbizzKm8WRYS4pujGoKITXRodVyO1zssShyzg/jxKAY4xg2VV7ddYRN2w+Tdp9DJCPkDW6sjHDfihtoM6borEh6TQb2OKCbUcC8aonP3b+aNQs60PoQohErgpiMXadqPL1xB2/29mEwGI1EkYIkn0gBTH5/RcbCPlUBHB3V65nTdSMxlDG4dCM08RrNspJokbUWFmQA1XTMRNWUmNMxB72E82dUEnXrNaJeCQFyVYJGMDBiHL/ecYTnNu3iSEPSCTdiiHmNpdWcLzxwK+tWLUVGI6qk12S3bvLwTpUV8zr5/Po1rJjnCLVhYhGiSbnMrj7PN1/axpZDZ1DjgLzgbhVVirhgqppPS2lWBGstYGkvXcfyG+4ki51EjUQckRIRiyIpdsYU0zBESngtpXPCcljQvpybum9FLqeDQkmVFY34GBCBEQy/2Poez72+nd6GQ8pVggjR11hcyXnikyt4bNUSqgLWnj9fOAfoptFHBRMjd8+fzVP3r2ZpR4noc8SlcCKWKmzth2++soffHjqFGIsQEIlEE/AaCKotBc6pC23NdcFQ5a7lj7Fi7h34esSLI1AiJShaRAKWgCMIeLGEWILo6bBzue/Wz7Fw1u3oRXDdTRGEzFtMVLxpgM0piaGO4eVdh3j+N7s4lGdY247zhhCGmV8a5nOf7GH96iWUE705iQ2fq8N419H8LiAopRhYt6ybp9atZlElMFzPiaZEJh7JMrad8Xxn0262nRwGccQYEfU4wKppGe9cR9sEWGTMHy+dvYY/u+ur3JCtRGt1rK0hErAGRBLXkf5HjGlgZBBbq3D38s/yiZ4/R7SjJTGaaq2b+AslCogGSkHxanhhxwGe2bSTQ3k7ajsLuniQxZWcL9y/ig23LqVTAxKKPY7n3NwLpuBSTD4iAmocTpWl8zro6Kyy98gpBmueso2IBKLNODHU4OipfhZe18UNnVUkKg6DUZPcyRSP1LhHTQrg1XD93OXM6biOYx/sZWjoREFvJo5DTSLvTbDoSKQtb+OBm/8d/+ru/8IN1Z50tocxo2Mmon/itMe/CkWc7rB4Svxy+36e3bKbg76MMR24KIgOsqBa5wv3rmLD6mV0SrEfvXA5rWNOJeewd8kVK1E0xccaCBjqkrFp31F+sHE77w1bfKmM1XT2XMxr3DW/nf/00B2smdcGGpLbuAj6cHRcVfKYI8ZipcGeIy/zi7eeY/fJN+lr9JIzRDSK0wodZh7dbT3cc/MGHlr7OdrNQqzJUKMk1rxlVC3WzuLFRI1UA6pKHcsvdx/i+5t20VuvgKsCiubDLKo0+Ot7V7Bh9WLaEUSSe5UmrSxwoRB3UppUScVMKYhAj8UVJfyN+4/x31/Zw96hSMUJDkNDLFIf4d75HXz94dtYNa9KjAEvNh1Yos0Ja4pPJw2PFa8BFCwGMZFBf4z3T29j75G3OdHXS1RPV3UOS7tvYVn3Wha03QqUiCFiTDpcMK0M5044J4AqWUiLa7BgJCKqjGD59Y6DPLN5J72+RJkORA3en2Vhtc4X71vN4yuX0KY5IoIx2ahxyGi55zKAbp28avMxTxccwfDK+yf59stvc2BAyUrtiKYbY/MGd15f4cuPrOa2GzrQ6FNfhUrKtEQKWpKpq5WTsow1Ig1Sy6KjWae5lB5NX4SKJqa2gYCSWcMIwi/eeY/nt7zLwbxCzNpSETYfZmE18MT9K9iwcintNIOFyZ7SyanRVrngpnttcbMeiBpQEbb09vP0K7vYfWoEV0rRAWrQes7HFlb4m4dXs2ZeO+CLkE+IifAs+N9WxVpVmCwTjGPPaXPCCohhbHvyuZ9snb76FH6GzINGLCVqYnhx12GefXUrh/Iy1nYhKD4McmN5hCfuv51HVy1mDiAaEx16kcBOlEs63UAJRPVYMXgyNh/t4+83bmPryYCzJarSIKcEjcDdC0r8zWNrWD27jejrqAHEIZrAGau8XFjpsaxr7BPABWPXVknHeUQwDWyAupT56e6DfG/LLo6OlBHbARgIZ1lQqfPF+1by+KpltBGxwdNk+S5lzFa5xGMkfMElO0QDdbH85ugA331lD3s+GKBUgmAzvGaYxgj3Lm7ny+tvY8WcNoxvFP3GLh3UWvAUzWThfNL6VBW/YaqbM9VfvKZz8TKBPAq/2H6Ab/92DwdyR9l04oIQwyCLOj1fuHcVj9+ymDZCWtgjIAbkKgLdqnhIR/hhiagGchxBHNuP9fMPr+9iy5EhfKlKCcUGReMw9y6dxVcfvJ0VXVVU63gcRuylJMoTvo+qznmfhELxsU8n/ruuhhd2H+S7r23nWKOdzKQoKfphFrcH/sODt/Fwz3zKGsY4dKXgV+ByezsuWDptvWTiNorFQCwGS4XIXd1dPPXwbfzJki40Hy6YN0d0nWw6OMB3Xt/F3sERojh8DKPVmDFELqSBTPL6fJNNGVtQyBW8egKREQy/2vk+3//NTg76EuLKlIJia4Msb/M8tW41j/YsoFKEraO8uTQZyklZ5YuSC0YdY5M7z7tiJDeGrWeG+N6rW3njQD8hm5UKBtFj8xoPLJvFUw+u5ubZldS+dhXOEh2jdjRVr6MhquCsMgy8sG0/P9yyi95GNUUXEbL6MEvaI0+sv5WHehZSLc6jhol1wCkGvEjjvoBFT20542xShcxH7pjTztcfvJ0Hls3ChD685hhRQlbi1feH+O7GPRzqr7fUCtOXSzCMKXVo1bjJnlhVHFCPhpd2HOZHv93DwUYJbDslbyEfYmFHzhPrb+PenoU49UQtWr9aqIGpR7t4mZY9LNFCNBEXGqya1cZXHrmT9cvnIvVBcvGIycmzEq8dHOAHr+7iZC20KH/x2eNkMjEwFI3F+dEGrDBilY0HjvCdzds5WCuTmVkYFTQMsLQ98O8fXMNDPQvoxGOjT2l8U6dxik2i5SUoPk3NyUIUSRGQepZ3lPnSutt5fMU8So2hFJ4ZpWENbx/p5/0ztXGfvlxbmfx5S/tQUv0gMpg32LT3MAeGFC11pHC8cZbFHQ2eXHcrj/bcSJWiv8PYVO3RyCUFYxch07LP0BZfVYRIRGKDnq4yX11/G2XreGF3H95AJdSolqGUjd3fSw/9LyxRFYhYjVTFMLvUTqVxhuga+DDCstnCkw+s5eGbuinFHIwDcWMKaWASk74iuTKgm6QKFM7RpJ42BCGwqD3j8w+sptJ+mC07D9ChDTbcuYIlc6vFBa7MbUyqUtFAnjgIQyWzPHr7Mk6eGWH7keMsnd/JZ+5ZySeX3EBZG6jKmKtozsPYok46fVBf1XPvYqgTROiPlt7Tg5QEls6bRdW0TmB6bTpFHoohFW0DaWPp8ZGcE6fP0t1ZZUFXG5ZUcBYFM7FB8Co8ZlcVaI2eoAExUhQTLGNhf9HXwfTOqai4pWtq6orSokZpCtoXVVTSYbLCRbYHXqFc0WJ4oTsUxBIlK2bviUVvcavDmI45jtZUCoBb2vkQFKu+4NWFqK2n68WW1P6q2VvS5apatGriCQrLSpS8gL0gvXElo9LkhxP4aTtIEAjFDq1UDk7Zo15MYjINcpVPCUv0ZhRLEIdoilDO2+w5HWMSKfLDMaoCxRGSX05OBGkB+WpEP61ylQ+B1cK+pJjYxTEVVybNvs7mGtDUoHWaiRi62uC2yjU9bfdaTuzDHnWiXNOjfj6c6V5o1GtjZ/8CzlQqpBn3TfnHqyt/FEdmTotMmVJfm+fs/wGUB7y3w4ChYwAAAABJRU5ErkJggg==;" vertex="1" parent="1">
          <mxGeometry x="44" y="670" width="90" height="84" as="geometry" />
        </mxCell>
      </root>
    </mxGraphModel>
  </diagram>
</mxfile>
